<svg width="35" height="38" viewBox="0 0 35 38" fill="none" xmlns="http://www.w3.org/2000/svg">
<path d="M34.3274 0H0.602234C0.442512 0 0.289331 0.0634495 0.17639 0.17639C0.0634495 0.289331 0 0.442512 0 0.602234V3.01117C0 3.17089 0.0634495 3.32408 0.17639 3.43702C0.289331 3.54996 0.442512 3.61341 0.602234 3.61341V34.9296C0.602234 35.0893 0.665684 35.2425 0.778625 35.3554C0.891566 35.4684 1.04475 35.5318 1.20447 35.5318H1.8067V36.7363C1.8067 36.896 1.87015 37.0492 1.98309 37.1621C2.09603 37.2751 2.24922 37.3385 2.40894 37.3385H4.21564C4.34204 37.3385 4.46525 37.2988 4.56779 37.2249C4.67034 37.151 4.74704 37.0467 4.78701 36.9268L5.25224 35.5318H30.2796L30.7448 36.9268C30.7848 37.0467 30.8615 37.151 30.964 37.2249C31.0666 37.2988 31.1898 37.3385 31.3162 37.3385H33.1229C33.2826 37.3385 33.4358 37.2751 33.5487 37.1621C33.6617 37.0492 33.7251 36.896 33.7251 36.7363V35.5318C33.8849 35.5318 34.038 35.4684 34.151 35.3554C34.2639 35.2425 34.3274 35.0893 34.3274 34.9296V3.61341C34.4871 3.61341 34.6403 3.54996 34.7532 3.43702C34.8661 3.32408 34.9296 3.17089 34.9296 3.01117V0.602234C34.9296 0.442512 34.8661 0.289331 34.7532 0.17639C34.6403 0.0634495 34.4871 0 34.3274 0ZM3.78128 36.1341H3.01117V35.5318H3.98228L3.78128 36.1341ZM32.5207 36.1341H31.7506L31.5496 35.5318H32.5207V36.1341ZM33.1229 34.3274H1.8067V3.61341H33.1229V34.3274ZM33.7251 2.40894H1.20447V1.20447H33.7251V2.40894Z" fill="#3E6A95"/>
<path d="M3.01117 33.7251H16.8626C17.0223 33.7251 17.1755 33.6617 17.2884 33.5487C17.4013 33.4358 17.4648 33.2826 17.4648 33.1229V4.81787C17.4648 4.65815 17.4013 4.50497 17.2884 4.39203C17.1755 4.27909 17.0223 4.21564 16.8626 4.21564H3.01117C2.85145 4.21564 2.69827 4.27909 2.58533 4.39203C2.47239 4.50497 2.40894 4.65815 2.40894 4.81787V33.1229C2.40894 33.2826 2.47239 33.4358 2.58533 33.5487C2.69827 33.6617 2.85145 33.7251 3.01117 33.7251ZM3.6134 5.42011H16.2603V32.5207H3.6134V5.42011Z" fill="#3E6A95"/>
<path d="M15.0558 16.2603C14.8961 16.2603 14.7429 16.3238 14.63 16.4367C14.5171 16.5496 14.4536 16.7028 14.4536 16.8625V20.476C14.4536 20.6357 14.5171 20.7889 14.63 20.9018C14.7429 21.0147 14.8961 21.0782 15.0558 21.0782C15.2156 21.0782 15.3688 21.0147 15.4817 20.9018C15.5946 20.7889 15.6581 20.6357 15.6581 20.476V16.8625C15.6581 16.7028 15.5946 16.5496 15.4817 16.4367C15.3688 16.3238 15.2156 16.2603 15.0558 16.2603Z" fill="#3E6A95"/>
<path d="M18.6693 33.7251H31.9185C32.0782 33.7251 32.2314 33.6617 32.3443 33.5487C32.4573 33.4358 32.5207 33.2826 32.5207 33.1229V28.305C32.5207 28.1453 32.4573 27.9921 32.3443 27.8791C32.2314 27.7662 32.0782 27.7028 31.9185 27.7028H18.6693C18.5096 27.7028 18.3564 27.7662 18.2435 27.8791C18.1305 27.9921 18.0671 28.1453 18.0671 28.305V33.1229C18.0671 33.2826 18.1305 33.4358 18.2435 33.5487C18.3564 33.6617 18.5096 33.7251 18.6693 33.7251ZM19.2715 28.9072H31.3162V32.5206H19.2715V28.9072Z" fill="#3E6A95"/>
<path d="M26.4983 29.5095H24.0894C23.9296 29.5095 23.7765 29.5729 23.6635 29.6859C23.5506 29.7988 23.4871 29.952 23.4871 30.1117C23.4871 30.2714 23.5506 30.4246 23.6635 30.5375C23.7765 30.6505 23.9296 30.7139 24.0894 30.7139H26.4983C26.658 30.7139 26.8112 30.6505 26.9241 30.5375C27.0371 30.4246 27.1005 30.2714 27.1005 30.1117C27.1005 29.952 27.0371 29.7988 26.9241 29.6859C26.8112 29.5729 26.658 29.5095 26.4983 29.5095Z" fill="#3E6A95"/>
<path d="M18.6693 27.1005H31.9185C32.0782 27.1005 32.2314 27.0371 32.3443 26.9241C32.4573 26.8112 32.5207 26.658 32.5207 26.4983V21.6804C32.5207 21.5207 32.4573 21.3675 32.3443 21.2546C32.2314 21.1416 32.0782 21.0782 31.9185 21.0782H18.6693C18.5096 21.0782 18.3564 21.1416 18.2435 21.2546C18.1305 21.3675 18.0671 21.5207 18.0671 21.6804V26.4983C18.0671 26.658 18.1305 26.8112 18.2435 26.9241C18.3564 27.0371 18.5096 27.1005 18.6693 27.1005ZM19.2715 22.2827H31.3162V25.8961H19.2715V22.2827Z" fill="#3E6A95"/>
<path d="M26.4983 22.8849H24.0894C23.9296 22.8849 23.7765 22.9483 23.6635 23.0613C23.5506 23.1742 23.4871 23.3274 23.4871 23.4871C23.4871 23.6468 23.5506 23.8 23.6635 23.913C23.7765 24.0259 23.9296 24.0894 24.0894 24.0894H26.4983C26.658 24.0894 26.8112 24.0259 26.9241 23.913C27.0371 23.8 27.1005 23.6468 27.1005 23.4871C27.1005 23.3274 27.0371 23.1742 26.9241 23.0613C26.8112 22.9483 26.658 22.8849 26.4983 22.8849Z" fill="#3E6A95"/>
<path d="M18.6693 20.476H31.9185C32.0782 20.476 32.2314 20.4125 32.3443 20.2996C32.4573 20.1866 32.5207 20.0335 32.5207 19.8737V4.81787C32.5207 4.65815 32.4573 4.50497 32.3443 4.39203C32.2314 4.27909 32.0782 4.21564 31.9185 4.21564H18.6693C18.5096 4.21564 18.3564 4.27909 18.2435 4.39203C18.1305 4.50497 18.0671 4.65815 18.0671 4.81787V19.8737C18.0671 20.0335 18.1305 20.1866 18.2435 20.2996C18.3564 20.4125 18.5096 20.476 18.6693 20.476ZM19.2715 5.42011H31.3162V19.2715H19.2715V5.42011Z" fill="#3E6A95"/>
</svg>
