<svg width="18" height="37" viewBox="0 0 18 37" fill="none" xmlns="http://www.w3.org/2000/svg">
<path d="M17.4375 0H0.5625C0.251859 0 0 0.258855 0 0.578125V36.4219C0 36.7411 0.251859 37 0.5625 37H4.5C4.81064 37 5.0625 36.7411 5.0625 36.4219V35.8438H12.9375V36.4219C12.9375 36.7411 13.1894 37 13.5 37H17.4375C17.7481 37 18 36.7411 18 36.4219V0.578125C18 0.258855 17.7481 0 17.4375 0ZM16.5 34.6875H1.5V12H16.5V34.6875ZM16.5 10H1.5V1.5H16.5V10Z" fill="#3E6A95"/>
<path d="M3.5 3C3.22387 3 3 3.26865 3 3.6V8.4C3 8.73135 3.22387 9 3.5 9C3.77613 9 4 8.73135 4 8.4V3.6C4 3.26865 3.77613 3 3.5 3Z" fill="#3E6A95"/>
<path d="M3.5 18C3.22387 18 3 18.3134 3 18.7V24.3C3 24.6866 3.22387 25 3.5 25C3.77613 25 4 24.6866 4 24.3V18.7C4 18.3134 3.77613 18 3.5 18Z" fill="#3E6A95"/>
</svg>
