<svg width="39" height="39" viewBox="0 0 39 39" fill="none" xmlns="http://www.w3.org/2000/svg">
<path d="M39 4.2806C39 3.30528 38.2073 2.51215 37.2326 2.51215H33.4264V1.36534C33.4264 1.00557 33.2866 0.677892 33.0586 0.433771C32.8094 0.166987 32.4548 0 32.0618 0H24.2093C23.4568 0 22.8447 0.612706 22.8447 1.36534V2.51215H16.1556V1.36534C16.1556 0.612408 15.5432 0 14.7907 0H6.93819C6.18569 0 5.57364 0.612706 5.57364 1.36534V2.51215H1.76743C0.792664 2.51215 0 3.30528 0 4.2806V8.0533C0 8.51447 0.177338 8.93455 0.467445 9.24983C0.177338 9.56482 0 9.9852 0 10.4464V33.7539C0 34.7289 0.792664 35.5223 1.76743 35.5223H1.94863V37.2336C1.94863 38.2078 2.7407 39 3.71427 39H21.4332C21.7489 39 22.0047 38.744 22.0047 38.4284C22.0047 38.1125 21.7489 37.8565 21.4332 37.8565H3.71427C3.3709 37.8565 3.0918 37.5769 3.0918 37.2336V35.5223H35.9082V37.2336C35.9082 37.5772 35.6291 37.8565 35.2857 37.8565H21.0615C20.7455 37.8565 20.8711 38.1125 20.8711 38.4284C20.8711 38.744 20.7455 39 21.0615 39H35.2857C36.2593 39 37.0514 38.2078 37.0514 37.2336V35.5223H37.2326C38.207 35.5223 39 34.7289 39 33.7539V10.4464C39 9.9852 38.8224 9.56482 38.5326 9.24983C38.8224 8.93455 39 8.51447 39 8.0533V4.2806ZM23.9876 1.36534C23.9876 1.24298 24.087 1.14384 24.2093 1.14384H32.0618C32.1841 1.14384 32.2835 1.24327 32.2835 1.36534V2.51215H23.9876V1.36534ZM6.71651 1.36534C6.71651 1.24298 6.8159 1.14384 6.93819 1.14384H14.7907C14.913 1.14384 15.0124 1.24327 15.0124 1.36534V2.51215H6.71651V1.36534ZM37.8568 33.7539C37.8568 34.0984 37.5768 34.3788 37.2326 34.3788H1.76743C1.42316 34.3788 1.14317 34.0984 1.14317 33.7539V10.4464C1.14317 10.1019 1.42316 9.82145 1.76743 9.82145H37.2326C37.5771 9.82145 37.8568 10.1019 37.8568 10.4464V33.7539ZM37.8568 8.0533C37.8568 8.39776 37.5768 8.67791 37.2326 8.67791H1.76743C1.42316 8.67791 1.14317 8.39776 1.14317 8.0533V4.2806C1.14317 3.93585 1.42316 3.65569 1.76743 3.65569H37.2326C37.5768 3.65569 37.8568 3.93585 37.8568 4.2806V8.0533Z" fill="#3E6A95"/>
<path d="M8 5C6.89704 5 6 5.89711 6 6.99985C6 8.10289 6.89704 9 8 9C9.10265 9 10 8.10289 10 6.99985C10 5.89711 9.10265 5 8 5ZM8 7.83509C7.53965 7.83509 7.16513 7.46054 7.16513 7.00015C7.16513 6.53977 7.53965 6.16491 8 6.16491C8.46035 6.16491 8.83487 6.53977 8.83487 7.00015C8.83487 7.46054 8.46035 7.83509 8 7.83509Z" fill="#3E6A95"/>
<path d="M14.0002 5C12.8971 5 12 5.89711 12 6.99985C12 8.10289 12.8971 9 14.0002 9C15.1029 9 16 8.10289 16 6.99985C16 5.89711 15.1029 5 14.0002 5ZM14.0002 7.83509C13.5395 7.83509 13.1649 7.46054 13.1649 7.00015C13.1649 6.53977 13.5395 6.16491 14.0002 6.16491C14.4605 6.16491 14.8351 6.53977 14.8351 7.00015C14.8351 7.46054 14.4605 7.83509 14.0002 7.83509Z" fill="#3E6A95"/>
<path d="M24.9998 5C23.8971 5 23 5.89711 23 6.99985C23 8.10289 23.8971 9 24.9998 9C26.1029 9 27 8.10289 27 6.99985C27 5.89711 26.1029 5 24.9998 5V5ZM24.9998 7.83509C24.5395 7.83509 24.1649 7.46054 24.1649 7.00015C24.1649 6.53977 24.5395 6.16491 24.9998 6.16491C25.4605 6.16491 25.8351 6.53977 25.8351 7.00015C25.8351 7.46054 25.4605 7.83509 24.9998 7.83509V7.83509Z" fill="#3E6A95"/>
<path d="M31 5C29.8973 5 29 5.89711 29 6.99985C29 8.10289 29.8973 9 31 9C32.103 9 33 8.10289 33 6.99985C33 5.89711 32.103 5 31 5V5ZM31 7.83509C30.5397 7.83509 30.1651 7.46054 30.1651 7.00015C30.1651 6.53977 30.5397 6.16491 31 6.16491C31.4603 6.16491 31.8349 6.53977 31.8349 7.00015C31.8349 7.46054 31.4603 7.83509 31 7.83509V7.83509Z" fill="#3E6A95"/>
<path d="M32.6545 14H13.837C13.5204 14 13.6142 14 13.6142 14.5456C13.6142 15.0912 13.5204 15.0915 13.837 15.0915H32.6545C32.7643 15.0915 32.8535 15.1767 32.8535 15.2813V16.7254C32.8535 16.83 32.7643 16.9152 32.6545 16.9152H5.34523C5.23542 16.9152 5.14619 16.83 5.14619 16.7254V15.2813C5.14619 15.1767 5.23542 15.0915 5.34523 15.0915L13.6905 15.0869C14.0072 15.0869 13.8839 14.8471 13.8839 14.5456C13.8839 14.2444 14.0595 14.0008 13.7429 14.0008L5.34523 14C4.60338 14 4 14.5746 4 15.2813V16.7254C4 17.4318 4.60338 18.0067 5.34523 18.0067H6.11184V30.1163C6.11184 31.1549 6.99931 32 8.09 32H29.9097C31.0004 32 31.8879 31.1549 31.8879 30.1163V18.0067H32.6545C33.3963 18.0067 34 17.4321 34 16.7254V15.2813C34 14.5749 33.3963 14 32.6545 14ZM30.7414 30.1163C30.7414 30.553 30.3684 30.9082 29.9097 30.9082H8.09C7.63135 30.9082 7.25803 30.553 7.25803 30.1163V18.0067H30.7414V30.1163Z" fill="#3E6A95"/>
</svg>
