<?xml version="1.0" encoding="iso-8859-1"?>
<!-- Generator: Adobe Illustrator 19.0.0, SVG Export Plug-In . SVG Version: 6.00 Build 0)  -->
<svg version="1.1" id="Capa_1" xmlns="http://www.w3.org/2000/svg" xmlns:xlink="http://www.w3.org/1999/xlink" x="0px" y="0px"
	 viewBox="0 0 512.006 512.006" style="enable-background:new 0 0 512.006 512.006;" xml:space="preserve">
<g>
	<g>
		<g>
			<circle cx="202.669" cy="266.669" r="10.667"/>
			<circle cx="288.003" cy="266.669" r="10.667"/>
			<circle cx="373.336" cy="266.669" r="10.667"/>
			<path d="M448.006,0.003H342.672c-85.396,0-162.167,47.448-200.354,123.823l-45.292,90.564
				c-42.675,27.617-74.217,67.467-90.833,117.29l-5.646,16.958c-1.083,3.25-0.542,6.823,1.479,9.604
				c2,2.781,5.208,4.427,8.646,4.427h490.667c5.896,0,10.667-4.771,10.667-10.667v-288C512.006,28.711,483.297,0.003,448.006,0.003z
				 M490.672,341.336H25.464l0.979-2.917c2.111-6.331,4.551-12.444,7.19-18.417h457.039V341.336z M490.672,298.669H44.75
				c40.034-67.451,117.109-106.667,214.443-106.667h231.479V298.669z M362.672,128.003h-42.667
				c-23.521,0-42.667,19.135-42.667,42.667h-18.146c-25.553,0-49.751,2.654-72.505,7.531l12.88-25.75
				c27.271-54.563,82.104-88.448,143.104-88.448h105.333v106.667h-42.667C405.339,147.138,386.193,128.003,362.672,128.003z
				 M384.006,170.669h-85.333c0-11.76,9.563-21.333,21.333-21.333h42.667C374.443,149.336,384.006,158.909,384.006,170.669z
				 M490.672,170.669h-21.333V64.003c0-11.76-9.563-21.333-21.333-21.333H342.672c-69.146,0-131.292,38.406-162.187,100.24
				l-21.303,42.589c-10.182,3.233-20.023,6.927-29.438,11.172l31.658-63.302C195.964,64.263,265.422,21.336,342.672,21.336h105.333
				c23.521,0,42.667,19.135,42.667,42.667V170.669z"/>
			<path d="M384.006,426.669c-5.896,0-10.667,4.771-10.667,10.667c0,5.885-4.792,10.667-8.729,10.896
				c-0.625-0.177-2.063-0.49-2.708-0.552c-4.792-0.458-9.542,2.479-11.146,7.156c-4.917,14.25-25.042,18.792-35.458,7.865
				c-2.667-2.76-6.646-3.906-10.313-2.958c-3.708,0.938-6.646,3.792-7.667,7.49c-3.854,13.802-16.438,23.438-30.646,23.438
				c-11.417,0-22.062-6.302-27.771-16.458c-2.229-3.958-6.75-6.125-11.167-5.271c-10.646,1.917-22.104-5.417-24.542-16.365
				c-0.75-3.417-3.146-6.25-6.396-7.573c-3.25-1.333-6.938-0.969-9.875,0.958c-2.792,1.833-4.521,2.042-5.583,2.042
				c-5.875,0-10.667-4.781-10.667-10.667c0-5.896-4.771-10.667-10.667-10.667c-5.896,0-10.667,4.771-10.667,10.667
				c0,19.5,18.333,35.156,37.479,31.469c7.458,13.229,21.688,20.896,37.417,21.865c10.021,13.313,25.708,21.333,42.437,21.333
				c18.771,0,35.875-10.042,45.375-25.625c19.25,9.438,45.021,1.427,55.667-17.438c15.25-2.427,26.958-15.677,26.958-31.604
				C394.672,431.44,389.901,426.669,384.006,426.669z"/>
			<path d="M277.339,437.336v-42.667c0-5.896-4.771-10.667-10.667-10.667s-10.667,4.771-10.667,10.667v42.667
				c0,5.896,4.771,10.667,10.667,10.667S277.339,443.232,277.339,437.336z"/>
			<path d="M323.13,423.544c2.083,2.083,4.813,3.125,7.542,3.125s5.458-1.042,7.542-3.125c4.167-4.167,4.167-10.917,0-15.083
				l-21.333-21.333c-4.167-4.167-10.917-4.167-15.083,0c-4.167,4.167-4.167,10.917,0,15.083L323.13,423.544z"/>
			<path d="M202.672,426.669c2.729,0,5.458-1.042,7.542-3.125l21.333-21.333c4.167-4.167,4.167-10.917,0-15.083
				c-4.167-4.167-10.917-4.167-15.083,0l-21.333,21.333c-4.167,4.167-4.167,10.917,0,15.083
				C197.214,425.628,199.943,426.669,202.672,426.669z"/>
		</g>
	</g>
</g>
<g>
</g>
<g>
</g>
<g>
</g>
<g>
</g>
<g>
</g>
<g>
</g>
<g>
</g>
<g>
</g>
<g>
</g>
<g>
</g>
<g>
</g>
<g>
</g>
<g>
</g>
<g>
</g>
<g>
</g>
</svg>
