<svg width="39" height="39" viewBox="0 0 39 39" fill="none" xmlns="http://www.w3.org/2000/svg">
<path d="M33.7256 0H25.7961C19.3676 0 13.5883 3.57185 10.7136 9.32131L7.30406 16.1389C4.09152 18.2179 1.71706 21.2178 0.466214 24.9684L0.0411873 26.245C-0.0403401 26.4897 0.000385953 26.7586 0.152525 26.968C0.303084 27.1773 0.54458 27.3012 0.80339 27.3012H37.7405C38.1843 27.3012 38.5435 26.9421 38.5435 26.4982V4.8178C38.5435 2.16112 36.3823 0 33.7256 0ZM36.9375 25.6953H1.91692L1.99062 25.4757C2.14954 24.9991 2.33322 24.5389 2.53188 24.0893H36.9375V25.6953V25.6953ZM36.9375 22.4834H3.36876C6.38249 17.4057 12.1846 14.4535 19.5119 14.4535H36.9375V22.4834ZM27.3017 9.63575H24.0898C22.3191 9.63575 20.8778 11.0762 20.8778 12.8477H19.5118C17.5882 12.8477 15.7666 13.0475 14.0537 13.4146L15.0233 11.4762C17.0762 7.36871 21.204 4.81787 25.796 4.81787H33.7254V12.8477H30.5135C30.5136 11.0762 29.0724 9.63575 27.3017 9.63575ZM28.9077 12.8476H22.4839C22.4839 11.9623 23.2038 11.2417 24.0898 11.2417H27.3018C28.1878 11.2417 28.9077 11.9623 28.9077 12.8476ZM36.9375 12.8476H35.3315V4.81787C35.3315 3.93259 34.6116 3.21194 33.7256 3.21194H25.7961C20.5909 3.21194 15.9125 6.10312 13.5868 10.7579L11.9831 13.964C11.2166 14.2074 10.4758 14.4855 9.76705 14.805L12.1502 10.0397C14.752 4.83745 19.9808 1.60593 25.7961 1.60593H33.7255C35.4962 1.60593 36.9375 3.0464 36.9375 4.81787V12.8476Z" fill="#3E6A95"/>
<path d="M28.9077 32.1191C28.4639 32.1191 28.1047 32.4783 28.1047 32.9221C28.1047 33.3652 27.744 33.7251 27.4476 33.7424C27.4006 33.7291 27.2923 33.7055 27.2437 33.7008C26.883 33.6664 26.5254 33.8875 26.4047 34.2395C26.0345 35.3123 24.5195 35.6542 23.7354 34.8316C23.5347 34.6238 23.2351 34.5376 22.9591 34.6089C22.6799 34.6795 22.4588 34.8944 22.3819 35.1728C22.0918 36.2118 21.1445 36.9372 20.0749 36.9372C19.2154 36.9372 18.4141 36.4628 17.9843 35.6982C17.8165 35.4003 17.4762 35.2371 17.1437 35.3014C16.3423 35.4457 15.4797 34.8936 15.2962 34.0695C15.2397 33.8122 15.0593 33.599 14.8147 33.4994C14.57 33.399 14.2924 33.4264 14.0713 33.5715C13.8611 33.7095 13.731 33.7252 13.651 33.7252C13.2088 33.7252 12.848 33.3653 12.848 32.9222C12.848 32.4784 12.4889 32.1192 12.045 32.1192C11.6012 32.1192 11.242 32.4784 11.242 32.9222C11.242 34.3902 12.6221 35.5687 14.0634 35.2912C14.6248 36.2871 15.6961 36.8642 16.8801 36.9372C17.6345 37.9394 18.8154 38.5431 20.0748 38.5431C21.4878 38.5431 22.7754 37.7871 23.4905 36.6141C24.9397 37.3246 26.8797 36.7215 27.6811 35.3013C28.8291 35.1186 29.7105 34.1212 29.7105 32.9222C29.7107 32.4783 29.3515 32.1191 28.9077 32.1191Z" fill="#3E6A95"/>
<path d="M20.8779 32.9222V29.7103C20.8779 29.2664 20.5188 28.9073 20.0749 28.9073C19.6311 28.9073 19.2719 29.2664 19.2719 29.7103V32.9222C19.2719 33.3661 19.6311 33.7252 20.0749 33.7252C20.5188 33.7252 20.8779 33.3661 20.8779 32.9222Z" fill="#3E6A95"/>
<path d="M24.3251 31.8839C24.4819 32.0407 24.6874 32.1192 24.8928 32.1192C25.0983 32.1192 25.3037 32.0407 25.4606 31.8839C25.7743 31.5702 25.7743 31.0621 25.4606 30.7485L23.8547 29.1426C23.541 28.8289 23.0328 28.8289 22.7192 29.1426C22.4055 29.4562 22.4055 29.9644 22.7192 30.278L24.3251 31.8839Z" fill="#3E6A95"/>
<path d="M15.257 32.1192C15.4625 32.1192 15.6679 32.0407 15.8248 31.8839L17.4307 30.278C17.7444 29.9643 17.7444 29.4562 17.4307 29.1426C17.1171 28.8289 16.6089 28.8289 16.2953 29.1426L14.6894 30.7485C14.3757 31.0622 14.3757 31.5703 14.6894 31.8839C14.8462 32.0408 15.0516 32.1192 15.257 32.1192Z" fill="#3E6A95"/>
</svg>
