<svg width="39" height="39" viewBox="0 0 39 39" fill="none" xmlns="http://www.w3.org/2000/svg">
<path d="M35.3311 32.1192H33.7253L33.7305 6.42464C33.7313 4.70887 33.0632 3.09511 31.8501 1.88198C30.6371 0.668104 29.0233 0 27.3076 0C23.7655 0 20.8845 2.88101 20.8845 6.42306V12.0376C20.8845 14.5417 19.6044 16.7501 17.6656 18.049V15.9116C18.5982 15.5791 19.2715 14.6961 19.2715 13.6506C19.2715 12.3222 18.1909 11.2417 16.8626 11.2417H15.9783C15.6052 9.41134 13.9834 8.02974 12.0447 8.02974H7.22681C5.28807 8.02974 3.66625 9.41134 3.29317 11.2417H2.40894C1.08056 11.2417 0 12.3222 0 13.6506C0 14.6961 0.673298 15.5791 1.60593 15.9116V32.267C0.673298 32.5996 0 33.4827 0 34.5281C0 35.5839 0.68715 36.4733 1.63416 36.7979C1.62972 36.8461 1.60593 36.8878 1.60593 36.9371C1.60593 37.8224 2.32658 38.543 3.21187 38.543C4.09723 38.543 4.81788 37.8224 4.81788 36.9371H14.4536C14.4536 37.8224 15.1743 38.543 16.0596 38.543C16.9448 38.543 17.6655 37.8224 17.6655 36.9371C17.6655 36.8878 17.6417 36.8461 17.6373 36.7979C18.5844 36.4732 19.2715 35.5838 19.2715 34.5281C19.2715 33.4827 18.5982 32.5997 17.6656 32.2671V23.3871C22.3397 21.7279 25.7024 17.2734 25.7024 12.0377V6.42381C25.7024 5.53852 26.423 4.81788 27.3083 4.81788C27.7373 4.81788 28.1403 4.98492 28.4438 5.28837C28.7465 5.59182 28.9135 5.99487 28.9135 6.42381L28.9074 32.1191H27.3012C25.5298 32.1191 24.0893 33.5596 24.0893 35.3311V36.1341C24.0893 36.5779 24.4485 36.9371 24.8923 36.9371H25.6953V37.7401C25.6953 38.1839 26.0545 38.5431 26.4983 38.5431H36.1341C36.5779 38.5431 36.9371 38.1839 36.9371 37.7401V36.9371H37.7401C38.1839 36.9371 38.5431 36.5779 38.5431 36.1341V35.3311C38.543 33.5597 37.1025 32.1192 35.3311 32.1192ZM7.22681 9.63575H12.0447C13.0902 9.63575 13.9731 10.309 14.3057 11.2417H4.9658C5.29838 10.309 6.18133 9.63575 7.22681 9.63575ZM2.40894 12.8477H16.8626C17.3056 12.8477 17.6656 13.2076 17.6656 13.6507C17.6656 14.0937 17.3057 14.4537 16.8626 14.4537H2.40894C1.96592 14.4537 1.60593 14.0938 1.60593 13.6507C1.60593 13.2076 1.96592 12.8477 2.40894 12.8477ZM13.6506 24.0894C14.4755 24.0894 15.2809 24.0052 16.0596 23.8466V32.1192H3.21194V16.0596H16.0596V18.828C15.3023 19.0976 14.4995 19.2715 13.6507 19.2715C12.3223 19.2715 11.2418 20.3521 11.2418 21.6804C11.2418 23.0088 12.3223 24.0894 13.6506 24.0894ZM16.8626 35.3311H2.40894C1.96592 35.3311 1.60593 34.9712 1.60593 34.5281C1.60593 34.085 1.96592 33.7251 2.40894 33.7251H16.8626C17.3056 33.7251 17.6656 34.085 17.6656 34.5281C17.6656 34.9712 17.3056 35.3311 16.8626 35.3311ZM27.3083 3.21194C25.5369 3.21194 24.0964 4.65241 24.0964 6.42388V12.0377C24.0964 17.7973 19.4102 22.4834 13.6506 22.4834C13.2076 22.4834 12.8476 22.1235 12.8476 21.6804C12.8476 21.2373 13.2075 20.8774 13.6506 20.8774C18.525 20.8774 22.4904 16.9119 22.4904 12.0376V6.42306C22.4904 3.76713 24.6516 1.60593 27.3076 1.60593C28.5944 1.60593 29.8044 2.10699 30.714 3.01742C31.6244 3.92702 32.1247 5.13781 32.1247 6.42456L32.1194 32.1191H30.5135L30.5196 6.42456C30.5203 5.56668 30.1863 4.75976 29.5793 4.15286C28.9724 3.54596 28.1662 3.21194 27.3083 3.21194ZM25.6953 35.3311C25.6953 34.4458 26.416 33.7251 27.3012 33.7251H35.3311C36.2163 33.7251 36.937 34.4458 36.937 35.3311H25.6953Z" fill="#3E6A95"/>
</svg>
