<?xml version="1.0" encoding="iso-8859-1"?>
<!-- Generator: Adobe Illustrator 19.0.0, SVG Export Plug-In . SVG Version: 6.00 Build 0)  -->
<svg version="1.1" id="Capa_1" xmlns="http://www.w3.org/2000/svg" xmlns:xlink="http://www.w3.org/1999/xlink" x="0px" y="0px"
	 viewBox="0 0 512 512" style="enable-background:new 0 0 512 512;" xml:space="preserve">
<g>
	<g>
		<g>
			<path d="M469.333,426.667h-21.331l0.07-341.323c0.01-22.792-8.865-44.229-24.979-60.344C406.979,8.875,385.542,0,362.75,0
				c-47.052,0-85.323,38.271-85.323,85.323v74.583c0,33.264-17.005,62.6-42.76,79.855v-28.393
				C247.056,206.951,256,195.221,256,181.333c0-17.646-14.354-32-32-32h-11.746c-4.956-24.314-26.5-42.667-52.254-42.667H96
				c-25.754,0-47.298,18.353-52.254,42.667H32c-17.646,0-32,14.354-32,32c0,13.888,8.944,25.617,21.333,30.035v217.263
				C8.944,433.049,0,444.779,0,458.667c0,14.025,9.128,25.839,21.708,30.151c-0.059,0.641-0.375,1.194-0.375,1.849
				c0,11.76,9.573,21.333,21.333,21.333C54.427,512,64,502.427,64,490.667h128c0,11.76,9.573,21.333,21.333,21.333
				c11.76,0,21.333-9.573,21.333-21.333c0-0.655-0.316-1.208-0.375-1.849C246.872,484.505,256,472.691,256,458.667
				c0-13.888-8.944-25.617-21.333-30.035V310.671c62.091-22.04,106.76-81.214,106.76-150.764V85.333
				C341.427,73.573,351,64,362.76,64c5.698,0,11.052,2.219,15.083,6.25c4.021,4.031,6.24,9.385,6.24,15.083l-0.081,341.333h-21.336
				c-23.531,0-42.667,19.135-42.667,42.667V480c0,5.896,4.771,10.667,10.667,10.667h10.667v10.667
				c0,5.896,4.771,10.667,10.667,10.667h128c5.896,0,10.667-4.771,10.667-10.667v-10.667h10.667c5.896,0,10.667-4.771,10.667-10.667
				v-10.667C512,445.802,492.865,426.667,469.333,426.667z M96,128h64c13.888,0,25.617,8.944,30.035,21.333H65.965
				C70.383,136.944,82.112,128,96,128z M32,170.667h192c5.885,0,10.667,4.781,10.667,10.667c0,5.885-4.781,10.667-10.667,10.667H32
				c-5.885,0-10.667-4.781-10.667-10.667C21.333,175.448,26.115,170.667,32,170.667z M181.333,320c10.957,0,21.656-1.118,32-3.225
				v109.892H42.667V213.333h170.667v36.775c-10.06,3.582-20.725,5.892-32,5.892c-17.646,0-32,14.354-32,32S163.688,320,181.333,320z
				 M224,469.333H32c-5.885,0-10.667-4.781-10.667-10.667S26.115,448,32,448h192c5.885,0,10.667,4.781,10.667,10.667
				S229.885,469.333,224,469.333z M362.76,42.667c-23.531,0-42.667,19.135-42.667,42.667v74.573c0,76.51-62.25,138.76-138.76,138.76
				c-5.885,0-10.667-4.781-10.667-10.667s4.781-10.667,10.667-10.667c64.75,0,117.427-52.677,117.427-117.427V85.323
				c0-35.281,28.708-63.99,63.99-63.99c17.094,0,33.167,6.656,45.25,18.75c12.094,12.083,18.74,28.167,18.74,45.26l-0.07,341.323
				h-21.333l0.081-341.323c0.01-11.396-4.427-22.115-12.49-30.177S374.156,42.667,362.76,42.667z M341.333,469.333
				c0-11.76,9.573-21.333,21.333-21.333h106.667c11.76,0,21.333,9.573,21.333,21.333H341.333z"/>
			<path d="M96,234.667H74.667c-5.896,0-10.667,4.771-10.667,10.667C64,251.229,68.771,256,74.667,256H96
				c5.896,0,10.667-4.771,10.667-10.667C106.667,239.438,101.896,234.667,96,234.667z"/>
			<path d="M96,277.333H74.667C68.771,277.333,64,282.104,64,288s4.771,10.667,10.667,10.667H96c5.896,0,10.667-4.771,10.667-10.667
				S101.896,277.333,96,277.333z"/>
		</g>
	</g>
</g>
<g>
</g>
<g>
</g>
<g>
</g>
<g>
</g>
<g>
</g>
<g>
</g>
<g>
</g>
<g>
</g>
<g>
</g>
<g>
</g>
<g>
</g>
<g>
</g>
<g>
</g>
<g>
</g>
<g>
</g>
</svg>
