<svg width="905" height="359" viewBox="0 0 905 359" fill="none" xmlns="http://www.w3.org/2000/svg">
<path d="M534.412 80.313C531.853 80.313 529.152 81.3905 526.311 83.5454C525.296 84.3501 523.365 86.505 520.52 90.0101C517.678 93.5772 515.139 97.3745 512.927 101.363C510.658 105.374 508.391 109.332 506.126 113.237C499.133 124.966 494.564 133.486 492.418 138.799C491.024 142.164 490.263 145.758 490.175 149.4C490.267 149.4 490.32 150.125 490.32 151.576V166.841C490.32 172.998 490.417 178.183 490.61 182.396C490.993 186.908 492.776 189.415 495.96 189.916C498.113 190.259 500.292 190.41 502.471 190.365C503.971 190.365 504.718 191.042 504.714 192.396C504.71 193.751 503.575 194.452 501.31 194.501H498.348C496.66 194.501 494.1 194.428 490.683 194.276C487.266 194.125 484.746 194.052 483.084 194.052C482.266 194.052 481.072 194.098 479.502 194.204C477.932 194.309 476.744 194.349 475.92 194.349H471.513C470.194 194.455 469.218 194.501 468.545 194.501C466.372 194.501 465.286 193.799 465.286 192.396C465.286 190.994 465.974 190.316 467.351 190.365H469.383C469.857 190.266 470.563 190.121 471.48 189.916C473.842 189.415 475.161 186.908 475.438 182.396C475.728 176.833 475.871 171.696 475.867 166.986V153.608C475.867 148.45 475.097 144.039 473.558 140.375C471.912 136.872 470.075 133.46 468.057 130.157L459.481 115.269L459.336 115.117L459.191 114.82C459.184 114.704 459.131 114.595 459.046 114.517L451.585 102.187C447.772 95.8283 445.111 91.6702 443.603 89.7132C439.759 84.647 436.102 81.6081 432.633 80.5967C432.126 80.4347 431.6 80.3393 431.069 80.313C429.38 80.313 428.536 79.6533 428.536 78.2812C428.536 76.9091 429.526 76.1769 431.498 76.1769C432.27 76.1769 433.404 76.2297 434.902 76.3286H438.86C439.005 76.3235 439.15 76.3484 439.285 76.4018C439.42 76.4551 439.542 76.5358 439.645 76.6387H446.017C447.337 76.6387 449.428 76.5595 452.198 76.4144C454.969 76.2693 457.053 76.1835 458.458 76.1835C460.437 76.1835 461.42 76.8893 461.42 78.2878C461.447 78.4842 461.431 78.6838 461.374 78.8736C461.317 79.0633 461.221 79.2388 461.091 79.3885C460.961 79.5382 460.801 79.6586 460.621 79.7418C460.442 79.825 460.246 79.869 460.048 79.871C459.576 80.018 459.142 80.2656 458.775 80.5967C457.759 81.098 457.251 81.7247 457.251 82.4767C457.251 83.8752 457.858 85.709 459.059 87.9651C461.618 92.9258 469.022 106.231 481.27 127.881L485.228 135.098C487.928 130.388 491.738 123.246 496.66 113.672L496.805 113.52C496.808 113.464 496.822 113.408 496.847 113.357C496.872 113.306 496.907 113.261 496.95 113.224C499.588 108.386 502.119 103.826 504.543 99.5422L509.101 91.3426C510.79 88.5918 511.634 86.1312 511.634 83.9807C511.634 82.0193 511.029 80.8913 509.82 80.5967C509.556 80.4361 509.262 80.3327 508.956 80.2932L508.375 79.9964C507.977 79.8681 507.63 79.6171 507.384 79.2794C507.137 78.9416 507.004 78.5345 507.003 78.1163C507.003 76.797 508.087 76.1373 510.255 76.1373H512.788C513.337 76.2338 513.893 76.2846 514.451 76.2891L516.192 76.4408C517.951 76.5419 519.253 76.5925 520.097 76.5925H523.35C524.794 76.4935 525.883 76.4408 526.608 76.4408L527.618 76.2891H531.021C532.512 76.1901 533.66 76.1373 534.419 76.1373C536.398 76.1373 537.387 76.797 537.387 78.1163C537.383 79.5808 536.391 80.313 534.412 80.313Z" fill="#24408A"/>
<path d="M558.661 189.619V190.22C559.101 191.671 560.5 192.396 562.857 192.396C563.236 192.495 563.626 192.546 564.018 192.548H565.172C566.861 192.548 567.705 193.208 567.705 194.527C567.705 195.978 566.043 196.711 562.712 196.711H559.895C558.688 196.711 556.854 196.631 554.393 196.486C551.933 196.341 550.099 196.255 548.898 196.255C547.401 196.255 545.125 196.335 542.058 196.486C538.99 196.638 536.741 196.711 535.296 196.711H531.609C528.422 196.711 526.833 195.978 526.833 194.527C526.833 193.208 527.585 192.548 529.076 192.548C529.955 192.548 531.329 192.447 533.198 192.245C533.556 192.054 533.954 191.953 534.359 191.948C535.933 191.399 537.437 190.666 538.839 189.764C540.624 188.617 542.458 185.635 544.34 180.819L580.582 86.3291C582.464 81.2673 583.784 78.3098 584.54 77.4566C584.804 77.0916 585.145 76.7882 585.538 76.5673C585.931 76.3463 586.367 76.2132 586.816 76.1769C587.393 76.2466 587.928 76.512 588.333 76.9289C588.914 77.4302 589.613 78.5583 590.431 80.313L593.98 88.2817C595.427 91.5932 597.885 97.5566 601.355 106.172L623.566 161.273C626.644 168.89 628.669 174.078 629.641 176.835C632.531 184.553 635.158 189.215 637.524 190.82C637.683 190.896 637.83 190.997 637.96 191.117C639.832 192.026 641.881 192.514 643.963 192.548C645.889 192.548 646.858 193.208 646.858 194.527C646.858 195.978 645.671 196.711 643.309 196.711H641.502C640.745 196.698 639.992 196.596 639.259 196.407H636.152C633.98 196.31 632.509 196.26 631.739 196.255C630.42 196.255 628.441 196.332 625.802 196.486C623.163 196.631 621.184 196.711 619.865 196.711H617.193C614.445 196.711 613.07 195.932 613.07 194.375C613.07 193.175 613.908 192.575 615.597 192.575H617.193C617.637 192.566 618.079 192.515 618.513 192.423L620.723 191.974C621.067 191.77 621.366 191.499 621.602 191.175C621.838 190.852 622.005 190.484 622.095 190.094L622.24 189.942V189.342C622.24 188.392 621.782 186.539 620.868 183.781C619.707 179.77 617.706 173.882 614.865 166.115C603.769 135.292 595.57 113.523 590.266 100.809L560.753 182.607V182.455C559.358 186.33 558.661 188.718 558.661 189.619Z" fill="#24408A"/>
<path d="M772.294 80.313C768.146 80.313 765.728 81.4916 765.037 83.8488C764.558 85.8014 764.318 89.0337 764.318 93.5458L764.028 183.603C764.028 188.88 763.883 192.062 763.593 193.148C763.258 194.802 762.599 195.629 761.614 195.629C760.294 195.629 756.484 192.271 750.182 185.556C743.88 178.84 734.42 168.701 721.803 155.139L721.077 154.387C718.909 151.933 715.611 148.3 711.182 143.489L710.819 143.113C707.49 139.652 695.41 125.869 674.578 101.765L676.312 172.58C676.506 178.693 677.06 183.003 677.975 185.51C678.854 188.368 680.519 189.795 682.968 189.791C684.817 190.221 686.711 190.422 688.609 190.391C690.108 190.391 690.856 191.068 690.851 192.423C690.847 193.777 689.618 194.479 687.164 194.527C682.92 194.527 679.402 194.428 676.609 194.23C676.128 194.23 675.237 194.178 673.931 194.079H671.451C669.863 194.079 667.488 194.153 664.326 194.303C661.164 194.452 658.79 194.527 657.202 194.527C655.029 194.527 653.945 193.826 653.95 192.423C653.954 191.02 654.689 190.343 656.153 190.391C657.498 190.401 658.842 190.301 660.17 190.094C661.337 189.737 662.447 189.217 663.469 188.551C663.997 188.111 664.436 187.097 664.788 185.51C665.272 182.805 665.562 177.967 665.659 170.997L665.804 82.668C665.749 80.6099 665.846 78.5506 666.094 76.5067C666.481 74.8356 667.231 74 668.344 74C669.223 74 670.404 74.9279 671.886 76.7838C672.76 77.5896 673.559 78.4727 674.274 79.4224C675.91 81.3223 681.187 87.2592 690.106 97.2334L721.354 132.196C722.845 133.849 725.112 136.356 728.155 139.716L755.136 170.383L753.645 94.5947C753.447 89.7879 753.007 86.4061 752.325 84.4491C751.406 82.0963 749.478 80.8693 746.54 80.7681C744.87 80.4573 743.173 80.3049 741.474 80.313C740.155 80.313 739.449 79.6533 739.449 78.2812C739.449 76.9091 740.729 76.1769 743.281 76.1769H744.733C746.325 76.1769 748.651 76.2539 751.712 76.4078C754.773 76.5529 757.101 76.6321 758.691 76.6321C760.09 76.6321 762.187 76.5529 764.984 76.4078C767.781 76.2626 769.879 76.1769 771.278 76.1769C773.738 76.1769 774.972 76.8827 774.972 78.2812C774.972 79.6797 774.094 80.313 772.294 80.313Z" fill="#24408A"/>
<path d="M839.869 194.501H836.907C835.219 194.501 832.675 194.426 829.275 194.276C825.871 194.125 823.338 194.052 821.643 194.052C820.871 194.052 819.664 194.098 818.094 194.204C816.524 194.309 815.323 194.349 814.552 194.349H810.066C808.812 194.455 807.823 194.501 807.104 194.501C804.936 194.501 803.85 193.799 803.845 192.396C803.841 190.994 804.54 190.316 805.943 190.365H807.968C808.502 190.266 809.287 190.094 810.323 189.844C810.835 189.718 811.304 189.456 811.679 189.086C812.054 188.715 812.322 188.25 812.454 187.739C813.663 184.48 814.323 178.115 814.433 168.642C814.534 162.925 814.582 156.361 814.578 148.951V98.5065C814.578 97.451 814.53 95.848 814.433 93.6975C814.34 91.5404 814.288 89.9111 814.288 88.8094V88.5852C814.288 84.1874 812.792 81.6301 809.802 80.9133C809.504 80.8446 809.215 80.7451 808.938 80.6164C807.811 80.4395 806.674 80.3381 805.534 80.313C804.135 80.313 803.436 79.6863 803.436 78.4329C803.436 76.9289 804.522 76.1769 806.695 76.1769H809.518C810.609 76.1821 811.697 76.2837 812.77 76.4803L814.288 76.3286C815.059 76.3286 816.267 76.3814 817.982 76.4803C819.697 76.5793 820.897 76.632 821.669 76.632C822.441 76.632 823.648 76.5793 825.212 76.4803C826.775 76.3814 827.982 76.3286 828.754 76.3286H833.24C834.493 76.2297 835.483 76.1769 836.208 76.1769C838.477 76.1769 839.606 76.9289 839.606 78.4329C839.606 79.6863 838.858 80.313 837.363 80.313H836.934C833.556 80.313 831.386 81.2409 830.423 83.0968C829.794 84.2006 829.335 86.2543 829.044 89.258C828.952 91.6196 828.904 94.698 828.899 98.4933V148.786C828.899 169.631 828.805 176.296 828.616 168.78C828.805 178.552 829.55 184.817 830.852 187.574C831.432 188.828 832.664 189.604 834.546 189.903C836.698 190.246 838.877 190.396 841.057 190.351C842.548 190.351 843.3 191.011 843.3 192.383C843.3 193.755 842.139 194.501 839.869 194.501Z" fill="#24408A"/>
<path d="M396.602 257.327C396.464 258.591 396.244 259.845 395.942 261.081C395.89 261.356 395.817 261.627 395.724 261.892C395.664 262.036 395.574 262.166 395.46 262.274C395.347 262.382 395.212 262.465 395.065 262.519C394.964 262.558 394.866 262.606 394.775 262.664C393.175 263.189 391.504 263.462 389.82 263.475C389.207 263.528 388.587 263.554 387.967 263.554C382.69 263.554 378.553 262.151 375.559 259.346C373.597 257.54 372.219 255.19 371.601 252.597C371.193 251.002 370.991 249.362 371 247.716C371.017 246.709 371.114 245.705 371.291 244.714C371.678 242.654 372.491 240.697 373.679 238.969C375.177 236.779 377.265 235.059 379.701 234.008C381.944 233.116 384.347 232.698 386.76 232.781C388.004 232.765 389.247 232.84 390.48 233.005C392.09 233.223 393.99 233.52 396.193 233.896C396.338 233.917 396.47 233.993 396.56 234.109C396.651 234.224 396.694 234.37 396.681 234.516C396.681 234.292 396.635 234.727 396.536 235.835C396.481 236.361 396.457 236.89 396.463 237.418C396.465 237.704 396.441 237.989 396.391 238.269L396.43 239.648C396.426 239.818 396.413 239.988 396.391 240.156C396.391 240.38 396.358 240.552 396.358 240.664C396.312 241.324 396.12 241.7 395.797 241.7C395.474 241.7 395.269 241.357 395.269 240.664V240.42C395.292 239.765 395.169 239.113 394.91 238.511C394.652 237.909 394.263 237.371 393.772 236.937C392.189 235.494 389.77 234.771 386.516 234.767C384.798 234.701 383.083 234.951 381.456 235.505C380.218 235.96 379.083 236.657 378.118 237.557C375.968 239.694 374.89 242.993 374.886 247.452C374.808 251.098 376.171 254.627 378.679 257.274C379.861 258.575 381.308 259.609 382.923 260.305C384.537 261.001 386.282 261.344 388.039 261.311C389.277 261.325 390.513 261.21 391.727 260.968C392.363 260.848 392.966 260.592 393.494 260.217C394.022 259.843 394.463 259.359 394.788 258.798C395.076 258.236 395.297 257.643 395.447 257.03C395.532 256.804 395.594 256.57 395.632 256.331C395.751 255.79 395.949 255.52 396.226 255.52C396.569 255.52 396.734 255.803 396.734 256.371C396.767 256.443 396.701 256.766 396.602 257.327Z" fill="#24408A"/>
<path d="M426.933 261.892C426.942 261.986 426.916 262.08 426.861 262.156C426.817 262.333 426.735 262.498 426.621 262.641C426.507 262.783 426.364 262.899 426.201 262.98C425.598 263.119 424.978 263.173 424.36 263.139C423.248 263.139 421.59 263.097 419.387 263.013C417.183 262.93 415.519 262.89 414.393 262.895H414.215C414.118 262.887 414.021 262.887 413.925 262.895H412.651C412.567 262.897 412.482 262.91 412.401 262.934H411.583C411.207 262.934 410.923 262.974 410.765 262.974C410.224 262.974 409.953 262.796 409.953 262.446C409.943 262.377 409.95 262.307 409.972 262.241C409.994 262.174 410.031 262.114 410.08 262.065C410.13 262.016 410.19 261.978 410.256 261.956C410.322 261.934 410.392 261.928 410.461 261.938H410.982L411.556 261.806C411.685 261.771 411.803 261.705 411.9 261.612C411.997 261.52 412.069 261.405 412.111 261.278C412.488 259.711 412.645 258.1 412.579 256.489C412.579 255.051 412.618 253.409 412.618 251.548V238.916C412.618 238.652 412.605 238.25 412.579 237.709C412.579 237.168 412.579 236.759 412.579 236.482V236.429C412.608 235.97 412.505 235.512 412.282 235.11C411.995 234.751 411.582 234.515 411.128 234.45C411.009 234.45 410.791 234.404 410.468 234.377C410.384 234.353 410.298 234.34 410.211 234.338H409.92C409.571 234.338 409.393 234.179 409.393 233.869C409.393 233.559 409.67 233.302 410.211 233.302L411.484 233.342C411.794 233.342 412.269 233.342 412.896 233.342L414.4 233.381C414.63 233.381 414.96 233.381 415.382 233.342C415.805 233.302 416.128 233.342 416.346 233.342H417.54C417.927 233.315 418.223 233.302 418.43 233.302C418.997 233.302 419.281 233.493 419.281 233.869C419.281 234.245 419.096 234.338 418.72 234.338C418.517 234.343 418.314 234.363 418.113 234.397C417.923 234.425 417.732 234.443 417.54 234.45C417.352 234.474 417.172 234.539 417.011 234.639C416.851 234.739 416.714 234.873 416.609 235.03C416.407 235.523 416.293 236.048 416.273 236.581C416.273 237.174 416.233 237.946 416.233 238.903V251.588C416.233 256.865 416.482 259.77 416.979 260.302C417.474 260.83 418.898 261.094 421.24 261.094C422.236 261.094 423.12 261.054 423.879 260.982C425.282 260.775 426.146 259.73 426.471 257.848C426.544 257.36 426.735 257.116 427.039 257.116C427.342 257.116 427.507 257.4 427.507 257.967C427.471 259.293 427.279 260.611 426.933 261.892Z" fill="#24408A"/>
<path d="M445.615 248.151V248.191V256.885C445.615 258.97 445.852 260.183 446.327 260.553C446.802 260.922 447.91 261.087 449.665 261.087H450.516C452.449 261.087 453.656 260.678 454.124 259.867C454.405 259.316 454.597 258.723 454.692 258.112C454.764 257.571 454.942 257.301 455.233 257.301C455.523 257.301 455.721 257.558 455.721 258.073V258.145C455.695 258.824 455.612 259.499 455.47 260.164C455.465 260.29 455.452 260.415 455.431 260.54V260.975C455.325 261.364 455.233 261.747 455.16 262.123C455.123 262.308 455.045 262.482 454.931 262.632C454.816 262.781 454.669 262.903 454.5 262.987C453.993 263.119 453.468 263.172 452.944 263.145C450.938 263.145 448.841 263.104 446.65 263.02C444.46 262.941 443.497 262.901 443.768 262.901H443.623C443.526 262.894 443.429 262.894 443.332 262.901H442.349C442.09 262.901 441.727 262.914 441.261 262.941C440.795 262.967 440.439 262.98 440.192 262.98C439.645 262.98 439.374 262.802 439.374 262.453C439.364 262.384 439.371 262.313 439.393 262.247C439.415 262.181 439.452 262.121 439.501 262.072C439.55 262.022 439.611 261.985 439.677 261.963C439.743 261.941 439.813 261.935 439.882 261.945H440.41L440.977 261.813C441.107 261.78 441.227 261.714 441.324 261.622C441.421 261.529 441.492 261.413 441.531 261.285C441.908 259.718 442.068 258.107 442.006 256.496C442.006 255.058 442.006 253.415 442.006 251.555V238.916C442.006 238.652 442.006 238.256 442.006 237.709C442.006 237.161 441.967 236.759 441.967 236.482V236.429C441.996 235.97 441.893 235.512 441.67 235.11C441.383 234.751 440.97 234.515 440.516 234.45C440.397 234.45 440.186 234.404 439.856 234.377C439.772 234.353 439.686 234.34 439.599 234.338H439.308C438.959 234.338 438.787 234.179 438.787 233.869C438.787 233.559 439.058 233.302 439.599 233.302L440.872 233.342C441.188 233.342 441.657 233.342 442.283 233.342L443.794 233.381H450.74C451.294 233.381 452.132 233.342 453.247 233.269L453.907 233.137H453.946C454.002 233.08 454.07 233.035 454.144 233.005C454.229 232.967 454.321 232.946 454.415 232.946C454.698 232.946 454.837 233.157 454.837 233.606C454.837 233.606 454.718 234.193 454.487 235.453V235.413C454.487 235.749 454.487 236.416 454.382 237.392C454.387 237.595 454.374 237.798 454.342 237.999V238.091C454.223 238.441 454.045 238.619 453.821 238.619C453.478 238.619 453.313 238.375 453.313 237.887C453.305 237.602 453.281 237.318 453.24 237.036L453.128 236.693C453.044 236.432 452.892 236.199 452.688 236.016C452.484 235.833 452.235 235.707 451.967 235.651C451.224 235.473 450.463 235.38 449.698 235.373C448.26 235.327 447.198 235.301 446.505 235.301H445.648V246.238H448.629C449.953 246.282 451.279 246.2 452.587 245.994C452.787 245.954 452.966 245.847 453.095 245.691L453.26 245.539C453.478 245.249 453.669 245.104 453.841 245.104C454.144 245.104 454.296 245.301 454.296 245.691C454.296 245.763 454.223 246.192 454.078 246.97C453.918 248.082 453.838 249.205 453.841 250.328V250.519C453.841 251.034 453.669 251.291 453.333 251.291C452.996 251.291 452.845 251.093 452.845 250.704C452.857 250.303 452.808 249.903 452.7 249.517C452.7 249.471 452.64 249.372 452.587 249.233C452.424 248.947 452.186 248.71 451.9 248.548C451.613 248.385 451.288 248.303 450.958 248.309C450.437 248.309 448.662 248.25 445.615 248.151Z" fill="#24408A"/>
<path d="M472.549 261.78V261.932C472.661 262.294 473.011 262.479 473.604 262.479C473.699 262.506 473.797 262.519 473.895 262.519H474.185C474.607 262.519 474.845 262.677 474.845 263.007C474.845 263.337 474.429 263.554 473.591 263.554H472.885C472.582 263.554 472.127 263.554 471.507 263.495C470.887 263.436 470.431 263.442 470.128 263.442C469.825 263.442 469.185 263.442 468.413 263.495C467.641 263.548 467.093 263.554 466.717 263.554H465.794C464.996 263.554 464.593 263.37 464.593 263.007C464.593 262.644 464.785 262.519 465.154 262.519C465.5 262.51 465.846 262.483 466.19 262.44C466.279 262.391 466.379 262.366 466.48 262.367C466.875 262.227 467.254 262.043 467.608 261.819C468.057 261.529 468.512 260.784 468.987 259.577L478.077 235.875C478.314 235.096 478.646 234.349 479.066 233.652C479.131 233.559 479.216 233.483 479.314 233.427C479.412 233.371 479.521 233.337 479.634 233.329C479.781 233.343 479.917 233.411 480.016 233.52C480.243 233.766 480.422 234.052 480.544 234.364L481.435 236.343C481.8 237.174 482.415 238.67 483.282 240.829L488.856 254.649C489.625 256.562 490.133 257.864 490.38 258.554C491.105 260.494 491.758 261.661 492.359 262.064C492.4 262.081 492.438 262.106 492.471 262.136C492.94 262.364 493.453 262.487 493.975 262.499C494.456 262.499 494.7 262.657 494.7 262.987C494.7 263.317 494.404 263.535 493.81 263.535H493.361C493.17 263.532 492.979 263.505 492.794 263.455H492.016C491.475 263.455 491.105 263.422 490.907 263.422C490.584 263.422 490.089 263.422 489.423 263.475C488.757 263.528 488.262 263.535 487.932 263.535H487.273C486.613 263.535 486.244 263.337 486.244 262.948C486.244 262.558 486.455 262.499 486.903 262.499H487.299C487.412 262.497 487.525 262.484 487.635 262.459L488.19 262.347C488.276 262.296 488.352 262.227 488.411 262.146C488.47 262.064 488.511 261.971 488.533 261.872L488.572 261.833V261.688C488.519 261.208 488.404 260.738 488.229 260.289C487.939 259.286 487.435 257.809 486.718 255.856C483.944 248.125 481.888 242.665 480.551 239.477L473.077 260.025V259.992C472.836 260.567 472.659 261.166 472.549 261.78Z" fill="#24408A"/>
<path d="M532.658 234.364C531.615 234.364 531.008 234.661 530.843 235.255C530.692 236.055 530.63 236.869 530.659 237.682L530.586 260.269C530.617 261.069 530.582 261.87 530.481 262.664C530.395 263.079 530.23 263.29 529.986 263.29C529.742 263.29 528.706 262.446 527.123 260.764C525.54 259.082 523.165 256.535 519.992 253.125L519.807 252.934C519.266 252.32 518.435 251.41 517.327 250.203L517.235 250.11C516.395 249.231 513.365 245.774 508.144 239.74L508.58 257.499C508.563 258.595 508.703 259.688 508.995 260.744C509.044 261.042 509.196 261.314 509.425 261.511C509.655 261.708 509.946 261.817 510.249 261.819C510.711 261.927 511.185 261.978 511.66 261.971C512.036 261.971 512.228 262.136 512.228 262.479C512.228 262.822 511.918 263.007 511.298 263.007C510.236 263.007 509.319 263.007 508.659 262.928H507.999H507.386C506.983 262.928 506.39 262.928 505.598 262.98C504.807 263.033 504.206 263.04 503.81 263.04C503.263 263.04 502.992 262.862 502.992 262.512C502.992 262.162 503.177 262.004 503.547 262.004C503.885 262.006 504.222 261.98 504.556 261.925C504.849 261.836 505.129 261.707 505.387 261.542C505.57 261.326 505.685 261.059 505.717 260.777C505.871 259.57 505.944 258.353 505.935 257.136V234.984C505.922 234.466 505.947 233.948 506.007 233.434C506.106 233.025 506.291 232.814 506.568 232.814C506.845 232.814 507.082 233.045 507.458 233.513C507.677 233.716 507.878 233.936 508.059 234.173C508.468 234.648 509.787 236.136 512.017 238.639L519.853 247.406C520.229 247.821 520.797 248.455 521.562 249.292L528.33 256.984L527.948 237.979C527.947 237.12 527.839 236.265 527.624 235.433C527.511 235.145 527.309 234.901 527.049 234.736C526.788 234.57 526.481 234.49 526.173 234.509C525.753 234.434 525.327 234.396 524.9 234.397C524.831 234.407 524.76 234.401 524.694 234.379C524.628 234.357 524.568 234.32 524.519 234.27C524.469 234.221 524.432 234.161 524.41 234.095C524.388 234.029 524.382 233.958 524.392 233.889C524.392 233.54 524.715 233.361 525.355 233.361H525.718C526.114 233.361 526.701 233.361 527.466 233.421C528.231 233.48 528.818 233.474 529.221 233.474C529.623 233.474 530.098 233.474 530.797 233.421C531.496 233.368 532.024 233.361 532.374 233.361C532.994 233.361 533.304 233.54 533.304 233.889C533.304 234.239 533.086 234.364 532.658 234.364Z" fill="#24408A"/>
<path d="M556.089 263.007H555.343C554.921 263.007 554.281 263.007 553.43 262.947C552.579 262.888 551.939 262.895 551.517 262.895C551.326 262.895 551.029 262.895 550.627 262.895C550.224 262.895 549.934 262.934 549.736 262.934H548.615C548.298 262.934 548.054 262.974 547.869 262.974C547.328 262.974 547.051 262.796 547.051 262.446C547.051 262.096 547.229 261.938 547.579 261.938H548.087L548.674 261.806C548.803 261.774 548.921 261.708 549.016 261.615C549.111 261.523 549.179 261.406 549.215 261.278C549.602 259.713 549.766 258.101 549.703 256.489C549.703 255.051 549.736 253.409 549.736 251.548V238.916C549.736 238.652 549.736 238.256 549.703 237.709C549.67 237.161 549.664 236.759 549.664 236.482V236.429C549.664 235.321 549.288 234.681 548.542 234.503L548.324 234.43C548.043 234.383 547.759 234.357 547.474 234.351C547.117 234.351 546.946 234.193 546.946 233.883C546.946 233.573 547.216 233.315 547.764 233.315H548.489C548.764 233.317 549.037 233.342 549.307 233.388H549.683C549.881 233.388 550.185 233.388 550.614 233.388C551.042 233.388 551.346 233.427 551.537 233.427C551.728 233.427 552.025 233.427 552.428 233.388C552.83 233.348 553.12 233.388 553.312 233.388H554.426C554.743 233.388 554.987 233.348 555.172 233.348C555.739 233.348 556.023 233.54 556.023 233.916C556.023 234.292 555.838 234.384 555.462 234.384H555.35C554.506 234.384 553.958 234.615 553.721 235.083C553.509 235.571 553.39 236.095 553.371 236.627C553.371 237.221 553.338 237.992 553.338 238.949V251.562C553.338 256.791 553.314 258.462 553.265 256.575C553.312 259.029 553.503 260.599 553.826 261.292C553.917 261.46 554.05 261.602 554.211 261.703C554.373 261.805 554.559 261.863 554.75 261.872C555.296 261.968 555.851 262.012 556.405 262.004C556.781 262.004 556.966 262.169 556.966 262.512C556.966 262.855 556.656 263.007 556.089 263.007Z" fill="#24408A"/>
<path d="M599.026 234.364C597.99 234.364 597.384 234.661 597.212 235.255C597.067 236.055 597.008 236.869 597.034 237.682L596.961 260.269C596.992 261.069 596.954 261.87 596.849 262.664C596.764 263.079 596.599 263.29 596.361 263.29C596.124 263.29 595.081 262.446 593.492 260.764C591.902 259.082 589.534 256.535 586.361 253.125L586.183 252.934C585.635 252.32 584.81 251.41 583.696 250.203L583.603 250.11C582.772 249.231 579.742 245.774 574.513 239.74L574.948 257.499C574.937 258.595 575.079 259.687 575.371 260.744C575.419 261.041 575.57 261.312 575.798 261.509C576.026 261.706 576.316 261.815 576.617 261.819C577.082 261.927 577.559 261.978 578.036 261.971C578.412 261.971 578.596 262.136 578.596 262.479C578.596 262.822 578.293 263.007 577.673 263.007C576.609 263.007 575.729 262.98 575.034 262.928H574.375H573.754C573.359 262.928 572.758 262.928 571.967 262.98C571.175 263.033 570.581 263.04 570.179 263.04C569.638 263.04 569.368 262.862 569.368 262.512C569.368 262.162 569.546 262.004 569.915 262.004C570.253 262.006 570.591 261.98 570.924 261.925C571.219 261.834 571.501 261.706 571.762 261.542C571.943 261.325 572.055 261.058 572.085 260.777C572.24 259.57 572.312 258.353 572.303 257.136L572.343 234.984C572.327 234.466 572.351 233.948 572.415 233.434C572.508 233.025 572.699 232.814 572.976 232.814C573.253 232.814 573.491 233.045 573.867 233.513C574.085 233.714 574.284 233.935 574.46 234.173C574.878 234.648 576.197 236.136 578.418 238.639L586.255 247.406L587.957 249.292L594.732 256.984L594.349 237.979C594.348 237.12 594.237 236.264 594.019 235.433C593.907 235.145 593.705 234.9 593.444 234.734C593.184 234.568 592.877 234.489 592.568 234.509C592.148 234.434 591.722 234.396 591.295 234.397C591.226 234.406 591.157 234.399 591.091 234.376C591.026 234.354 590.967 234.317 590.918 234.267C590.87 234.218 590.833 234.158 590.812 234.093C590.79 234.027 590.784 233.958 590.794 233.889C590.794 233.54 591.11 233.361 591.75 233.361H592.113C592.515 233.361 593.096 233.361 593.868 233.421C594.639 233.48 595.187 233.474 595.616 233.474C596.044 233.474 596.493 233.474 597.199 233.421C597.905 233.368 598.426 233.361 598.775 233.361C599.389 233.361 599.699 233.54 599.699 233.889C599.699 234.239 599.475 234.364 599.026 234.364Z" fill="#24408A"/>
<path d="M639.523 249.075H639.417C638.573 249.075 638.025 249.312 637.775 249.787C637.524 250.269 637.405 251.43 637.405 253.277V259.464C637.405 260.784 637.214 261.569 636.838 261.74L636.805 261.78C634.268 262.875 631.546 263.477 628.784 263.554C627.564 263.534 626.346 263.446 625.136 263.29C621.874 262.947 618.808 261.572 616.382 259.365C614.863 257.962 613.7 256.216 612.991 254.273C612.258 252.32 611.883 250.251 611.883 248.164C611.857 245.638 612.377 243.136 613.407 240.829C614.426 238.538 616.09 236.595 618.196 235.235C620.198 233.944 622.485 233.161 624.859 232.953C625.967 232.832 627.081 232.768 628.196 232.761H628.685C629.878 232.792 631.067 232.918 632.24 233.137C633.019 233.276 633.784 233.421 634.549 233.573C635.318 233.731 636.099 233.819 636.884 233.836C637.359 233.889 637.597 234.081 637.597 234.424C637.597 234.595 637.544 235.083 637.452 235.967C637.377 237.049 637.339 238.368 637.339 239.925C637.339 240.618 637.142 240.967 636.739 240.967C636.475 240.967 636.31 240.704 636.251 240.189C636.177 239.139 635.791 238.135 635.143 237.306C633.604 235.574 630.877 234.707 626.963 234.707C623.792 234.707 621.191 235.543 619.159 237.214C616.793 239.175 615.608 242.379 615.603 246.825C615.58 248.449 615.818 250.066 616.309 251.614C616.895 253.742 617.978 255.7 619.469 257.327C620.689 258.632 622.169 259.667 623.813 260.365C625.457 261.064 627.228 261.411 629.014 261.384C630.427 261.469 631.839 261.211 633.131 260.632C633.338 260.526 633.51 260.363 633.627 260.162C633.744 259.96 633.801 259.73 633.79 259.497V252.901C633.854 251.937 633.769 250.969 633.54 250.031C633.263 249.444 632.623 249.134 631.633 249.108C631.549 249.085 631.463 249.074 631.376 249.075H631.092C630.736 249.075 630.565 248.923 630.565 248.62C630.565 248.316 630.835 248.032 631.376 248.032L632.649 248.072C632.966 248.072 633.434 248.072 634.067 248.112L635.565 248.151C635.756 248.151 636.046 248.151 636.442 248.118C636.838 248.085 637.135 248.079 637.339 248.079H638.448C638.771 248.079 639.022 248.039 639.193 248.039C639.76 248.039 640.044 248.237 640.044 248.626C640.044 249.015 639.866 249.075 639.523 249.075Z" fill="#24408A"/>
<path d="M683.898 256.951C683.743 257.939 683.391 258.886 682.861 259.735C682.332 260.584 681.637 261.318 680.818 261.892C679.124 263.055 677.099 263.638 675.046 263.554C673.282 263.586 671.535 263.219 669.933 262.479C669.673 262.322 669.465 262.093 669.333 261.819C669.299 261.486 669.286 261.151 669.293 260.817C669.293 260.869 669.333 259.926 669.406 257.993C669.406 257.888 669.406 257.67 669.439 257.334C669.462 257.134 669.475 256.934 669.478 256.733C669.524 256.146 669.702 255.849 670.006 255.849C670.309 255.849 670.527 256.074 670.527 256.509C670.527 258.594 671.187 260.014 672.506 260.77C673.53 261.329 674.678 261.619 675.844 261.615C677.143 261.63 678.405 261.178 679.4 260.342C679.9 259.939 680.301 259.426 680.569 258.842C680.837 258.258 680.965 257.62 680.943 256.977V256.753C680.933 255.844 680.736 254.946 680.365 254.115C679.994 253.285 679.456 252.539 678.786 251.924C678.212 251.337 676.972 250.196 675.066 248.514C673.76 247.436 672.6 246.191 671.615 244.813C670.66 243.387 670.155 241.707 670.164 239.991C670.116 238.97 670.302 237.951 670.708 237.012C671.114 236.073 671.729 235.24 672.506 234.575C674.089 233.332 676.062 232.691 678.074 232.768C679.267 232.753 680.458 232.892 681.616 233.183C682.032 233.289 682.46 233.347 682.889 233.355C683.272 233.355 683.463 233.526 683.463 233.883C683.463 233.955 683.463 234.074 683.43 234.239L683.358 235.011C683.358 235.703 683.318 236.693 683.318 237.973C683.318 238.725 683.14 239.101 682.79 239.101C682.441 239.101 682.355 238.87 682.282 238.408C682.218 238.103 682.17 237.794 682.137 237.484C681.976 236.774 681.595 236.132 681.049 235.65C679.979 234.889 678.678 234.523 677.368 234.615C676.226 234.572 675.114 234.982 674.274 235.756C673.865 236.158 673.546 236.642 673.338 237.177C673.13 237.711 673.037 238.284 673.067 238.856C673.129 240.319 673.77 241.698 674.848 242.689C675.66 243.58 676.543 244.405 677.486 245.156C679.046 246.331 680.487 247.657 681.788 249.114C683.246 250.831 684.05 253.009 684.057 255.262C684.059 255.829 684.006 256.395 683.898 256.951Z" fill="#24408A"/>
<path d="M704.414 248.151C704.413 248.157 704.413 248.162 704.415 248.168C704.416 248.173 704.419 248.178 704.423 248.182C704.427 248.186 704.432 248.189 704.437 248.19C704.443 248.192 704.448 248.192 704.454 248.191V256.885C704.454 258.97 704.685 260.183 705.16 260.553C705.634 260.922 706.743 261.087 708.497 261.087H709.348C711.281 261.087 712.488 260.678 712.957 259.867C713.238 259.316 713.429 258.723 713.524 258.112C713.597 257.571 713.775 257.301 714.065 257.301C714.355 257.301 714.553 257.558 714.553 258.073V258.145C714.528 258.824 714.444 259.499 714.302 260.164C714.302 260.243 714.302 260.368 714.269 260.54V260.975C714.16 261.362 714.067 261.745 713.992 262.123C713.956 262.308 713.877 262.482 713.763 262.632C713.649 262.781 713.501 262.903 713.333 262.987C712.825 263.119 712.3 263.172 711.776 263.145C709.771 263.145 707.673 263.104 705.483 263.02C703.293 262.941 702.33 262.901 702.6 262.901H702.455C702.358 262.894 702.261 262.894 702.165 262.901H701.129C700.87 262.901 700.507 262.914 700.041 262.941C699.574 262.967 699.218 262.98 698.972 262.98C698.424 262.98 698.154 262.802 698.154 262.453C698.144 262.384 698.15 262.313 698.172 262.247C698.194 262.181 698.231 262.121 698.281 262.072C698.33 262.022 698.39 261.985 698.456 261.963C698.522 261.941 698.593 261.935 698.662 261.945H699.19L699.757 261.813C699.887 261.78 700.006 261.714 700.103 261.622C700.2 261.529 700.272 261.413 700.311 261.285C700.688 259.718 700.848 258.107 700.786 256.496C700.786 255.058 700.819 253.415 700.819 251.555V238.916C700.819 238.652 700.819 238.256 700.786 237.709C700.753 237.161 700.746 236.759 700.746 236.482V236.429C700.775 235.97 700.672 235.512 700.449 235.11C700.163 234.75 699.75 234.514 699.295 234.45C699.176 234.45 698.965 234.404 698.635 234.377C698.552 234.353 698.465 234.34 698.378 234.338H698.088C697.738 234.338 697.567 234.18 697.567 233.869C697.567 233.559 697.837 233.302 698.378 233.302L699.651 233.342C699.968 233.342 700.436 233.342 701.063 233.342L702.574 233.381H709.52C710.074 233.381 710.912 233.342 712.027 233.269L712.686 233.137H712.726C712.782 233.08 712.849 233.035 712.924 233.005C713.011 232.966 713.105 232.945 713.201 232.946C713.478 232.946 713.616 233.157 713.616 233.606C713.616 233.606 713.498 234.193 713.267 235.453V235.413C713.267 235.75 713.267 236.416 713.161 237.392C713.167 237.595 713.154 237.798 713.122 237.999V238.091C713.003 238.441 712.831 238.619 712.601 238.619C712.258 238.619 712.093 238.375 712.093 237.887C712.085 237.602 712.061 237.318 712.02 237.036L711.908 236.693C711.823 236.432 711.671 236.199 711.467 236.016C711.263 235.833 711.015 235.707 710.747 235.651C710.003 235.473 709.242 235.38 708.478 235.373C707.04 235.327 705.977 235.301 705.285 235.301H704.401V246.238H707.376C708.7 246.282 710.025 246.2 711.334 245.994C711.533 245.954 711.712 245.847 711.842 245.691L712.007 245.539C712.225 245.249 712.422 245.104 712.587 245.104C712.891 245.104 713.042 245.301 713.042 245.691C713.042 245.763 712.97 246.192 712.825 246.97C712.664 248.082 712.585 249.205 712.587 250.328V250.519C712.587 251.034 712.422 251.291 712.079 251.291C711.736 251.291 711.591 251.093 711.591 250.704C711.603 250.303 711.554 249.903 711.446 249.517C711.446 249.471 711.387 249.372 711.334 249.233C711.17 248.947 710.933 248.71 710.646 248.548C710.359 248.385 710.034 248.303 709.705 248.309C709.236 248.309 707.468 248.25 704.414 248.151Z" fill="#24408A"/>
<path d="M748.803 262.479L748.875 262.552C747.485 261.736 746.286 260.632 745.359 259.313C744.726 258.468 743.794 257.204 742.562 255.52C742.094 254.86 741.401 253.864 740.498 252.538C739.977 251.773 739.561 251.219 739.264 250.81L739.192 250.73C739.117 250.714 739.043 250.69 738.974 250.658L734.435 250.579C734.435 250.579 734.435 250.579 734.435 250.658V251.542C734.435 256.771 734.409 258.442 734.356 256.555C734.409 259.009 734.587 260.579 734.904 261.272C734.997 261.438 735.131 261.577 735.292 261.679C735.453 261.78 735.637 261.84 735.827 261.852C736.374 261.943 736.929 261.983 737.483 261.971C737.846 261.971 738.024 262.136 738.024 262.479C738.024 262.822 737.74 263.007 737.173 263.007H736.428C735.715 263.007 734.97 263.007 734.198 262.928H732.219L730.9 263H730.557C730.273 263 730.016 263.04 729.772 263.04H729.112C728.564 263.04 728.294 262.862 728.294 262.512C728.284 262.443 728.29 262.373 728.312 262.306C728.334 262.24 728.371 262.18 728.421 262.131C728.47 262.082 728.53 262.044 728.596 262.022C728.662 262 728.733 261.994 728.802 262.004H729.33L729.897 261.872C730.027 261.839 730.146 261.774 730.243 261.681C730.34 261.589 730.412 261.473 730.451 261.344C730.828 259.777 730.988 258.166 730.926 256.555C730.926 255.117 730.959 253.475 730.959 251.614V238.916C730.959 238.652 730.959 238.256 730.926 237.709C730.893 237.161 730.886 236.759 730.886 236.482V236.429C730.915 235.97 730.812 235.512 730.59 235.11C730.303 234.75 729.89 234.514 729.435 234.45C729.316 234.45 729.105 234.404 728.775 234.377C728.692 234.353 728.605 234.34 728.518 234.338H728.228C727.878 234.338 727.707 234.179 727.707 233.869C727.707 233.559 727.977 233.302 728.518 233.302L729.791 233.342C730.108 233.342 730.576 233.342 731.203 233.342L732.714 233.381C732.964 233.381 733.334 233.381 733.815 233.342C734.297 233.302 734.666 233.342 734.904 233.342H736.137C736.566 233.342 736.883 233.302 737.1 233.302C738.58 233.277 740.056 233.441 741.494 233.79C742.89 234.135 744.137 234.921 745.049 236.033C746.142 237.274 746.743 238.872 746.738 240.525C746.738 243.652 745.263 246.636 742.312 249.477L746.395 254.834C747.688 256.566 748.618 257.754 749.185 258.396C750.505 259.948 751.604 260.898 752.484 261.245C753.49 261.692 754.576 261.93 755.677 261.945C756.072 261.945 756.277 262.11 756.277 262.453C756.277 262.796 755.888 262.98 755.109 262.98H752.471C751.227 263.05 749.982 262.88 748.803 262.479ZM736.929 234.668C736.08 234.64 735.231 234.735 734.409 234.951C734.152 234.997 734.026 235.176 734.026 235.479V248.112C734.026 248.501 734.33 248.771 734.95 248.956C735.992 249.225 737.066 249.353 738.143 249.339H738.308C739.007 249.342 739.703 249.24 740.372 249.035C741.388 248.672 742.213 247.769 742.839 246.337C743.309 245.131 743.533 243.844 743.499 242.551C743.601 240.569 743.039 238.61 741.903 236.983C741.326 236.219 740.57 235.608 739.701 235.204C738.833 234.8 737.879 234.616 736.922 234.668H736.929Z" fill="#24408A"/>
<path d="M767.32 236.937V236.897L774.754 257.387C776.073 254.207 778.129 248.752 780.922 241.02C781.634 239.059 782.136 237.583 782.426 236.594C782.597 236.144 782.712 235.674 782.769 235.195V235.044H782.736C782.716 234.944 782.676 234.851 782.617 234.769C782.557 234.687 782.481 234.618 782.393 234.569L781.839 234.457C781.728 234.433 781.616 234.419 781.502 234.417H781.1C780.678 234.417 780.44 234.259 780.44 233.949C780.44 233.639 780.783 233.381 781.476 233.381H782.136C782.465 233.381 782.96 233.381 783.626 233.441C784.293 233.5 784.788 233.494 785.117 233.494C785.309 233.494 785.678 233.494 786.219 233.454H787.004C787.188 233.409 787.376 233.385 787.565 233.381H788.02C788.607 233.381 788.904 233.559 788.904 233.909C788.904 234.259 788.666 234.417 788.178 234.417C787.658 234.424 787.146 234.541 786.674 234.76L786.569 234.833C785.975 235.25 785.315 236.427 784.59 238.362C784.345 239.022 783.838 240.341 783.066 242.26L777.492 256.08C776.612 258.244 775.996 259.735 775.645 260.553L774.754 262.519C774.63 262.83 774.452 263.116 774.226 263.363C774.125 263.466 773.993 263.534 773.85 263.554C773.736 263.545 773.626 263.511 773.527 263.454C773.427 263.397 773.342 263.318 773.276 263.225C772.866 262.525 772.534 261.781 772.287 261.008L763.197 237.306C762.722 236.086 762.267 235.327 761.818 235.064C761.469 234.829 761.09 234.645 760.69 234.516C760.589 234.513 760.49 234.488 760.4 234.443C760.058 234.4 759.715 234.373 759.371 234.364C758.995 234.364 758.803 234.193 758.803 233.856C758.803 233.52 759.206 233.329 760.004 233.329H760.927C761.29 233.329 761.858 233.329 762.623 233.388C763.388 233.447 763.942 233.441 764.338 233.441C764.734 233.441 765.103 233.441 765.717 233.388C766.33 233.335 766.792 233.329 767.095 233.329H767.808C768.639 233.329 769.055 233.507 769.055 233.856C769.055 234.206 768.843 234.364 768.395 234.364H768.157C768.059 234.365 767.962 234.378 767.867 234.404C767.273 234.404 766.924 234.589 766.818 234.951V235.103C766.915 235.731 767.084 236.347 767.32 236.937Z" fill="#24408A"/>
<path d="M807.737 263.007H806.992C806.57 263.007 805.93 263.007 805.079 262.947C804.228 262.888 803.588 262.895 803.166 262.895C802.968 262.895 802.671 262.895 802.275 262.895C801.879 262.895 801.576 262.934 801.385 262.934H800.263C799.947 262.934 799.696 262.974 799.518 262.974C798.97 262.974 798.7 262.796 798.7 262.446C798.7 262.096 798.878 261.938 799.227 261.938H799.735L800.323 261.806C800.45 261.772 800.566 261.706 800.66 261.613C800.753 261.521 800.821 261.405 800.857 261.278C801.16 260.46 801.323 258.864 801.345 256.489C801.345 255.051 801.385 253.409 801.385 251.548V238.916C801.385 238.652 801.371 238.25 801.345 237.709C801.345 237.168 801.345 236.759 801.345 236.482V236.429C801.345 235.321 800.969 234.681 800.217 234.503L799.999 234.43C799.718 234.383 799.434 234.357 799.148 234.351C798.799 234.351 798.621 234.193 798.621 233.883C798.621 233.573 798.898 233.315 799.439 233.315H800.144C800.419 233.317 800.692 233.341 800.962 233.388H801.345C801.536 233.388 801.846 233.388 802.269 233.388C802.691 233.388 803.001 233.427 803.199 233.427C803.397 233.427 803.687 233.427 804.083 233.388C804.478 233.348 804.782 233.388 804.973 233.388H806.101C806.411 233.388 806.662 233.348 806.84 233.348C807.414 233.348 807.698 233.54 807.698 233.916C807.698 234.292 807.506 234.384 807.13 234.384H807.025C806.18 234.384 805.633 234.615 805.389 235.083C805.18 235.572 805.064 236.096 805.046 236.627C805.046 237.221 805.013 237.992 805.013 238.949V251.562C805.013 256.791 804.989 258.462 804.94 256.575C804.984 259.029 805.171 260.601 805.501 261.292C805.592 261.46 805.724 261.602 805.886 261.703C806.048 261.805 806.234 261.863 806.424 261.872C806.965 261.962 807.513 262.002 808.06 261.991C808.43 261.991 808.621 262.156 808.621 262.499C808.621 262.842 808.291 263.007 807.737 263.007Z" fill="#24408A"/>
<path d="M846.473 257.327C846.332 258.591 846.112 259.845 845.813 261.081C845.767 261.358 845.695 261.629 845.595 261.892C845.534 262.036 845.444 262.166 845.331 262.274C845.217 262.382 845.083 262.465 844.936 262.519C844.834 262.558 844.737 262.606 844.645 262.664C843.046 263.189 841.375 263.462 839.691 263.475C839.078 263.528 838.458 263.554 837.844 263.554C832.567 263.554 828.429 262.151 825.429 259.346C823.468 257.54 822.09 255.19 821.471 252.597C821.064 251.002 820.862 249.362 820.871 247.716C820.887 246.709 820.985 245.705 821.161 244.714C821.535 242.657 822.332 240.701 823.503 238.969C825.003 236.781 827.091 235.061 829.526 234.008C831.769 233.116 834.172 232.698 836.584 232.781C837.828 232.764 839.072 232.839 840.305 233.005C841.914 233.225 843.819 233.522 846.017 233.896C846.164 233.916 846.297 233.991 846.389 234.107C846.481 234.222 846.525 234.369 846.512 234.516C846.512 234.292 846.459 234.727 846.367 235.835C846.309 236.361 846.285 236.89 846.294 237.418C846.293 237.704 846.268 237.988 846.222 238.269L846.255 239.648C846.255 239.76 846.255 239.925 846.222 240.156C846.2 240.325 846.187 240.494 846.182 240.664C846.136 241.324 845.945 241.7 845.622 241.7C845.298 241.7 845.094 241.357 845.094 240.664V240.42C845.121 239.762 845.001 239.106 844.745 238.499C844.488 237.892 844.101 237.35 843.61 236.911C842.022 235.468 839.603 234.745 836.353 234.74C834.634 234.674 832.916 234.924 831.287 235.479C830.049 235.934 828.914 236.631 827.949 237.531C825.799 239.668 824.721 242.966 824.717 247.426C824.639 251.071 826.002 254.601 828.51 257.248C829.694 258.549 831.142 259.583 832.757 260.279C834.373 260.975 836.118 261.318 837.877 261.285C839.113 261.299 840.346 261.184 841.558 260.942C842.188 260.824 842.786 260.573 843.312 260.206C843.838 259.838 844.279 259.363 844.606 258.811C844.909 258.252 845.146 257.658 845.312 257.043C845.397 256.817 845.458 256.583 845.496 256.344C845.615 255.803 845.813 255.533 846.097 255.533C846.38 255.533 846.598 255.816 846.598 256.384C846.611 256.443 846.565 256.766 846.473 257.327Z" fill="#24408A"/>
<path d="M866.058 248.151C866.058 248.151 866.058 248.191 866.091 248.191V256.885C866.091 258.97 866.328 260.183 866.803 260.553C867.278 260.922 868.387 261.087 870.141 261.087H870.992C872.925 261.087 874.132 260.678 874.601 259.867C874.881 259.316 875.073 258.723 875.168 258.112C875.24 257.571 875.419 257.301 875.709 257.301C875.999 257.301 876.197 257.558 876.197 258.073V258.145C876.172 258.824 876.088 259.499 875.946 260.164C875.942 260.29 875.928 260.415 875.907 260.54V260.975C875.801 261.364 875.709 261.747 875.636 262.123C875.601 262.308 875.522 262.483 875.408 262.632C875.294 262.782 875.146 262.904 874.977 262.987C874.471 263.119 873.948 263.173 873.426 263.145C871.421 263.145 869.323 263.104 867.133 263.02C864.943 262.941 863.98 262.901 864.25 262.901H864.105C864.009 262.894 863.912 262.894 863.815 262.901H862.779C862.52 262.901 862.157 262.914 861.691 262.941C861.225 262.967 860.869 262.98 860.622 262.98C860.075 262.98 859.804 262.802 859.804 262.453C859.794 262.384 859.801 262.313 859.823 262.247C859.845 262.181 859.882 262.121 859.931 262.072C859.98 262.022 860.041 261.985 860.107 261.963C860.173 261.941 860.243 261.935 860.312 261.945H860.84L861.407 261.813C861.537 261.78 861.657 261.714 861.754 261.622C861.851 261.529 861.922 261.413 861.961 261.285C862.338 259.718 862.498 258.107 862.436 256.496C862.436 255.058 862.436 253.415 862.436 251.555V238.916C862.436 238.652 862.436 238.256 862.436 237.709C862.436 237.161 862.397 236.759 862.397 236.482V236.429C862.426 235.97 862.323 235.512 862.1 235.11C861.813 234.751 861.4 234.515 860.946 234.45C860.827 234.45 860.616 234.404 860.286 234.377C860.202 234.353 860.116 234.34 860.029 234.338H859.738C859.389 234.338 859.211 234.179 859.211 233.869C859.211 233.559 859.488 233.302 860.029 233.302L861.302 233.342C861.612 233.342 862.087 233.342 862.714 233.342L864.224 233.381H871.17C871.724 233.381 872.562 233.342 873.677 233.269L874.337 233.137H874.376C874.432 233.08 874.5 233.035 874.574 233.005C874.659 232.967 874.751 232.946 874.845 232.946C875.128 232.946 875.267 233.157 875.267 233.606C875.267 233.606 875.148 234.193 874.917 235.453V235.413C874.917 235.749 874.917 236.416 874.812 237.392C874.817 237.595 874.804 237.798 874.772 237.999V238.091C874.653 238.441 874.475 238.619 874.251 238.619C873.908 238.619 873.743 238.375 873.743 237.887C873.735 237.602 873.711 237.318 873.671 237.036L873.558 236.693C873.474 236.432 873.322 236.199 873.118 236.016C872.914 235.833 872.665 235.707 872.397 235.651C871.654 235.473 870.893 235.38 870.128 235.373C868.69 235.327 867.628 235.301 866.935 235.301H866.045V246.238H869.086C870.41 246.282 871.735 246.2 873.044 245.994C873.243 245.954 873.422 245.847 873.552 245.691L873.717 245.539C873.934 245.249 874.126 245.104 874.297 245.104C874.601 245.104 874.752 245.301 874.752 245.691C874.752 245.763 874.68 246.192 874.535 246.97C874.374 248.082 874.295 249.205 874.297 250.328V250.519C874.297 251.034 874.126 251.291 873.789 251.291C873.453 251.291 873.301 251.093 873.301 250.704C873.313 250.303 873.264 249.903 873.156 249.517C873.156 249.471 873.097 249.372 873.044 249.233C872.88 248.947 872.642 248.711 872.355 248.549C872.069 248.386 871.744 248.304 871.414 248.309C870.88 248.309 869.086 248.25 866.058 248.151Z" fill="#24408A"/>
<path d="M904.246 256.951C904.088 257.939 903.734 258.886 903.203 259.735C902.673 260.583 901.978 261.317 901.159 261.892C899.465 263.055 897.44 263.638 895.387 263.554C893.623 263.586 891.875 263.219 890.274 262.479C890.014 262.322 889.806 262.093 889.674 261.819C889.64 261.486 889.627 261.151 889.634 260.817C889.634 260.87 889.674 259.926 889.746 257.993C889.746 257.888 889.746 257.67 889.746 257.334C889.77 257.134 889.783 256.934 889.786 256.733C889.832 256.146 890.01 255.849 890.314 255.849C890.617 255.849 890.835 256.074 890.835 256.509C890.835 258.594 891.495 260.014 892.814 260.771C893.838 261.328 894.986 261.619 896.152 261.615C897.451 261.632 898.714 261.18 899.707 260.342C900.208 259.939 900.609 259.426 900.876 258.842C901.144 258.258 901.273 257.62 901.251 256.977V256.753C901.24 255.844 901.044 254.946 900.673 254.115C900.302 253.285 899.764 252.539 899.094 251.924C898.52 251.337 897.286 250.196 895.373 248.514C894.089 247.444 892.947 246.214 891.976 244.853C891.021 243.427 890.515 241.747 890.525 240.031C890.477 239.009 890.663 237.99 891.068 237.052C891.474 236.113 892.089 235.279 892.867 234.615C894.45 233.371 896.423 232.731 898.434 232.807C899.628 232.792 900.819 232.932 901.977 233.223C902.395 233.33 902.825 233.387 903.256 233.395C903.632 233.395 903.824 233.566 903.824 233.922C903.824 233.995 903.824 234.114 903.824 234.278L903.751 235.05C903.751 235.743 903.712 236.732 903.712 238.012C903.712 238.764 903.54 239.14 903.184 239.14C902.828 239.14 902.748 238.909 902.676 238.448C902.612 238.142 902.563 237.834 902.531 237.524C902.37 236.813 901.989 236.172 901.442 235.69C900.372 234.929 899.071 234.563 897.761 234.654C896.62 234.612 895.508 235.022 894.668 235.796C894.259 236.198 893.94 236.682 893.731 237.216C893.523 237.751 893.431 238.323 893.46 238.896C893.523 240.359 894.164 241.738 895.241 242.729C896.054 243.62 896.936 244.445 897.88 245.196C899.44 246.371 900.881 247.697 902.181 249.154C903.64 250.871 904.444 253.049 904.45 255.302C904.432 255.857 904.363 256.409 904.246 256.951V256.951Z" fill="#24408A"/>
<path d="M0.0472412 0V132.4C6.08411 115.966 15.0414 100.758 26.4872 87.51C49.4872 60.51 83.3372 42.15 119.287 37.22C126.248 36.2799 133.264 35.8088 140.287 35.81C170.213 35.777 199.554 44.0882 225.017 59.81C228.537 62.01 231.947 64.37 235.237 66.65L236.297 67.39L236.587 67.59L236.867 67.82C237.867 68.67 238.947 69.51 239.997 70.35C242.437 72.35 244.997 74.35 247.407 76.56L247.517 76.66L247.627 76.76C248.527 77.65 249.467 78.53 250.467 79.45C252.993 81.7056 255.368 84.1242 257.577 86.69L259.547 88.89C262.133 91.7018 264.564 94.6529 266.827 97.73C277.712 112.742 285.839 129.571 290.827 147.43C301.127 183.131 297.603 221.401 280.957 254.62V254.67C273.262 270.348 263.313 284.814 251.427 297.61C239.699 310.415 225.962 321.223 210.757 329.61C204.974 332.881 198.938 335.683 192.707 337.99H338.127V0H0.0472412Z" fill="#24408A"/>
<path d="M102.5 309.199L87.7579 315.075C84.7464 316.275 83.2781 319.689 84.4783 322.701L96.4887 352.836C97.689 355.847 101.103 357.316 104.115 356.115L118.857 350.24C121.869 349.039 123.337 345.625 122.137 342.614L110.126 312.479C108.926 309.467 105.512 307.999 102.5 309.199Z" fill="#FAC32B"/>
<path d="M282.517 149.79C277.791 132.886 270.113 116.95 259.837 102.72C257.047 98.8402 253.967 95.6002 251.077 92.2802C248.187 88.9602 244.807 86.0202 241.647 82.9302C238.487 79.8402 234.857 77.2902 231.457 74.4802C227.837 71.9802 224.227 69.4802 220.507 67.1202C190.602 48.7072 155.266 41.157 120.447 45.7402C86.2072 50.4302 54.4472 67.9302 33.0072 93.1002C11.3372 118.1 -0.332775 150.25 0.00722469 181.17C9.32722 151.73 26.1272 126.35 48.3072 108.77C69.1881 91.5787 95.0777 81.6164 122.097 80.376C149.116 79.1357 175.809 86.6841 198.177 101.89C200.837 103.74 203.367 105.75 205.967 107.66C208.367 109.8 210.967 111.76 213.237 113.98C215.507 116.2 217.937 118.36 219.957 120.83C221.977 123.3 224.307 125.54 225.957 127.83C233.67 138.336 239.939 149.828 244.597 162C246.928 168.136 248.744 174.454 250.027 180.89C251.434 187.285 252.247 193.796 252.457 200.34C252.922 213.806 250.968 227.245 246.687 240.02C242.331 253.305 235.857 265.799 227.517 277.02C219.066 288.346 208.668 298.078 196.807 305.76C186.007 312.834 173.716 317.314 160.897 318.85C162.067 318.24 163.227 317.61 164.387 316.96C172.75 312.228 180.578 306.609 187.737 300.2C191.339 296.896 194.755 293.394 197.967 289.71C199.577 287.85 201.257 286.03 202.727 284.05L207.037 278.05C208.509 276.055 209.845 273.964 211.037 271.79L214.737 265.31C216.987 261.18 219.017 256.77 220.927 252.31C224.731 243.196 227.606 233.721 229.507 224.03C231.411 213.929 232.063 203.631 231.447 193.37C230.566 182.692 228.071 172.21 224.047 162.28L220.627 154.89C219.377 152.5 217.897 150.25 216.517 147.94C215.171 145.626 213.671 143.404 212.027 141.29C210.477 139.1 208.747 137.11 207.027 135.1C200.097 127.226 192.044 120.416 183.127 114.89C165.447 103.89 143.837 98.2902 122.957 100.53C102.612 102.677 83.6381 111.8 69.2572 126.35C55.5972 140.35 47.2572 158.49 46.1172 176.44C55.7772 161.31 67.9672 149.59 81.5872 141.97C95.2072 134.35 110.127 131.02 124.127 132.05C138.029 133.046 151.369 137.94 162.617 146.17C174.037 154.25 183.187 165.27 188.267 177.23C193.347 189.19 194.797 203.31 192.847 217.94C191.894 225.406 190.264 232.77 187.977 239.94C186.837 243.61 185.597 247.27 184.047 250.94L181.817 256.08C181.152 257.837 180.349 259.539 179.417 261.17C169.557 280.81 153.037 297.75 132.887 311.1C136.534 307.634 140.077 304.03 143.517 300.29C156.127 287.89 172.887 253.74 175.707 236.89C177.907 222.8 177.707 215.21 174.537 203.06C171.367 190.91 165.317 181.82 155.877 173.43C151.184 169.219 145.692 165.995 139.727 163.95C133.935 162.018 127.816 161.259 121.727 161.72C110.48 162.836 99.9066 167.598 91.6172 175.28C101.737 171.99 112.157 170.52 121.337 172.4C130.004 173.988 137.743 178.81 142.987 185.89C145.578 189.338 147.694 193.119 149.277 197.13C150.031 199.164 150.675 201.237 151.207 203.34C151.967 205.29 152.037 207.5 152.407 209.56C153.345 218.356 152.623 227.251 150.277 235.78C145.115 254.417 137.781 272.384 128.427 289.31C124.265 296.817 119.443 303.939 114.017 310.59L114.137 310.86L125.917 340.43C136.847 339.15 147.917 338.37 159.587 337.11C163.517 336.66 167.587 336.06 171.587 335.25C175.587 334.44 179.677 333.17 183.717 332.11C191.594 329.506 199.205 326.158 206.447 322.11C220.871 314.141 233.902 303.877 245.027 291.72C256.353 279.554 265.839 265.799 273.187 250.89C280.832 235.491 285.629 218.836 287.347 201.73C288.99 184.267 287.352 166.651 282.517 149.79V149.79Z" fill="#FAC32B"/>
</svg>
