<svg width="1470" height="651" viewBox="0 0 1470 651" fill="none" xmlns="http://www.w3.org/2000/svg">
<g clip-path="url(#clip0)">
<path d="M908.66 190.57C904.78 190.57 900.687 192.203 896.38 195.47C894.84 196.69 891.913 199.957 887.6 205.27C883.293 210.677 879.443 216.434 876.09 222.48C872.65 228.56 869.213 234.56 865.78 240.48C855.18 258.26 848.253 271.177 845 279.23C842.887 284.332 841.734 289.78 841.6 295.3C841.74 295.3 841.82 296.4 841.82 298.6V321.74C841.82 331.073 841.967 338.933 842.26 345.32C842.84 352.16 845.543 355.96 850.37 356.72C853.633 357.24 856.936 357.468 860.24 357.4C862.513 357.4 863.647 358.427 863.64 360.48C863.633 362.533 861.913 363.597 858.48 363.67H853.99C851.43 363.67 847.55 363.56 842.37 363.33C837.19 363.1 833.37 362.99 830.85 362.99C829.61 362.99 827.8 363.06 825.42 363.22C823.04 363.38 821.24 363.44 819.99 363.44H813.31C811.31 363.6 809.83 363.67 808.81 363.67C805.517 363.67 803.87 362.607 803.87 360.48C803.87 358.353 804.913 357.327 807 357.4H810.08C810.8 357.25 811.87 357.03 813.26 356.72C816.84 355.96 818.84 352.16 819.26 345.32C819.7 336.887 819.917 329.1 819.91 321.96V301.68C819.91 293.86 818.743 287.173 816.41 281.62C813.914 276.309 811.13 271.137 808.07 266.13L795.07 243.56L794.85 243.33L794.63 242.88C794.619 242.704 794.54 242.539 794.41 242.42L783.1 223.73C777.32 214.09 773.287 207.787 771 204.82C765.173 197.14 759.63 192.533 754.37 191C753.602 190.754 752.805 190.61 752 190.57C749.44 190.57 748.16 189.57 748.16 187.49C748.16 185.41 749.66 184.3 752.65 184.3C753.82 184.3 755.54 184.38 757.81 184.53H763.81C764.03 184.522 764.249 184.56 764.454 184.641C764.659 184.722 764.845 184.844 765 185H774.66C776.66 185 779.83 184.88 784.03 184.66C788.23 184.44 791.39 184.31 793.52 184.31C796.52 184.31 798.01 185.38 798.01 187.5C798.05 187.798 798.026 188.1 797.94 188.388C797.854 188.676 797.707 188.942 797.511 189.169C797.314 189.395 797.071 189.578 796.799 189.704C796.526 189.83 796.23 189.897 795.93 189.9C795.215 190.123 794.556 190.498 794 191C792.46 191.76 791.69 192.71 791.69 193.85C791.69 195.97 792.61 198.75 794.43 202.17C798.31 209.69 809.533 229.86 828.1 262.68L834.1 273.62C838.193 266.48 843.97 255.653 851.43 241.14L851.65 240.91C851.655 240.824 851.676 240.74 851.714 240.663C851.752 240.585 851.805 240.516 851.87 240.46C855.87 233.127 859.707 226.213 863.38 219.72L870.29 207.29C872.85 203.12 874.13 199.39 874.13 196.13C874.13 193.157 873.213 191.447 871.38 191C870.98 190.757 870.534 190.6 870.07 190.54L869.19 190.09C868.587 189.896 868.06 189.515 867.687 189.003C867.313 188.491 867.111 187.874 867.11 187.24C867.11 185.24 868.753 184.24 872.04 184.24H875.88C876.712 184.386 877.555 184.463 878.4 184.47L881.04 184.7C883.707 184.853 885.68 184.93 886.96 184.93H891.89C894.08 184.78 895.73 184.7 896.83 184.7L898.36 184.47H903.52C905.78 184.32 907.52 184.24 908.67 184.24C911.67 184.24 913.17 185.24 913.17 187.24C913.163 189.46 911.66 190.57 908.66 190.57Z" fill="white"/>
<path d="M945.42 356.27V357.18C946.087 359.38 948.207 360.48 951.78 360.48C952.355 360.63 952.946 360.707 953.54 360.71H955.29C957.85 360.71 959.13 361.71 959.13 363.71C959.13 365.91 956.61 367.02 951.56 367.02H947.29C945.46 367.02 942.68 366.9 938.95 366.68C935.22 366.46 932.44 366.33 930.62 366.33C928.35 366.33 924.9 366.45 920.25 366.68C915.6 366.91 912.19 367.02 910 367.02H904.41C899.58 367.02 897.17 365.91 897.17 363.71C897.17 361.71 898.31 360.71 900.57 360.71C901.903 360.71 903.987 360.557 906.82 360.25C907.362 359.961 907.966 359.807 908.58 359.8C910.966 358.968 913.245 357.857 915.37 356.49C918.077 354.75 920.857 350.23 923.71 342.93L978.65 199.69C981.503 192.017 983.503 187.533 984.65 186.24C985.051 185.687 985.567 185.227 986.162 184.892C986.758 184.557 987.419 184.355 988.1 184.3C988.974 184.406 989.786 184.808 990.4 185.44C991.28 186.2 992.34 187.91 993.58 190.57L998.96 202.65C1001.15 207.67 1004.88 216.71 1010.14 229.77L1043.81 313.3C1048.48 324.847 1051.55 332.71 1053.02 336.89C1057.4 348.59 1061.38 355.657 1064.97 358.09C1065.21 358.206 1065.43 358.358 1065.63 358.54C1068.47 359.918 1071.57 360.659 1074.73 360.71C1077.65 360.71 1079.12 361.71 1079.12 363.71C1079.12 365.91 1077.32 367.02 1073.74 367.02H1071C1069.85 367 1068.71 366.846 1067.6 366.56H1062.89C1059.6 366.413 1057.37 366.337 1056.2 366.33C1054.2 366.33 1051.2 366.447 1047.2 366.68C1043.2 366.9 1040.2 367.02 1038.2 367.02H1034.15C1029.98 367.02 1027.9 365.84 1027.9 363.48C1027.9 361.66 1029.17 360.75 1031.73 360.75H1034.15C1034.82 360.737 1035.49 360.66 1036.15 360.52L1039.5 359.84C1040.02 359.531 1040.48 359.119 1040.83 358.629C1041.19 358.139 1041.44 357.581 1041.58 356.99L1041.8 356.76V355.85C1041.8 354.41 1041.11 351.6 1039.72 347.42C1037.96 341.34 1034.93 332.413 1030.62 320.64C1013.8 273.913 1001.37 240.913 993.33 221.64L948.59 345.64V345.41C946.477 351.283 945.42 354.903 945.42 356.27Z" fill="white"/>
<path d="M1269.27 190.57C1262.98 190.57 1259.32 192.357 1258.27 195.93C1257.54 198.89 1257.18 203.79 1257.18 210.63L1256.74 347.15C1256.74 355.15 1256.52 359.973 1256.08 361.62C1255.57 364.127 1254.57 365.38 1253.08 365.38C1251.08 365.38 1245.3 360.29 1235.75 350.11C1226.2 339.93 1211.86 324.56 1192.73 304L1191.63 302.86C1188.34 299.14 1183.34 293.633 1176.63 286.34L1176.08 285.77C1171.03 280.523 1152.72 259.63 1121.14 223.09L1123.77 330.44C1124.06 339.707 1124.9 346.24 1126.29 350.04C1127.62 354.373 1130.15 356.537 1133.86 356.53C1136.66 357.182 1139.53 357.487 1142.41 357.44C1144.68 357.44 1145.82 358.467 1145.81 360.52C1145.8 362.573 1143.94 363.637 1140.22 363.71C1133.79 363.71 1128.45 363.56 1124.22 363.26C1123.49 363.26 1122.14 363.18 1120.16 363.03H1116.4C1113.99 363.03 1110.39 363.143 1105.6 363.37C1100.81 363.597 1097.21 363.71 1094.8 363.71C1091.51 363.71 1089.86 362.647 1089.87 360.52C1089.88 358.393 1090.99 357.367 1093.21 357.44C1095.25 357.454 1097.29 357.304 1099.3 356.99C1101.07 356.448 1102.75 355.66 1104.3 354.65C1105.1 353.983 1105.77 352.447 1106.3 350.04C1107.03 345.94 1107.47 338.607 1107.62 328.04L1107.84 194.14C1107.76 191.02 1107.9 187.898 1108.28 184.8C1108.87 182.267 1110 181 1111.69 181C1113.02 181 1114.81 182.407 1117.06 185.22C1118.38 186.442 1119.6 187.78 1120.68 189.22C1123.16 192.1 1131.16 201.1 1144.68 216.22L1192.05 269.22C1194.31 271.727 1197.75 275.527 1202.36 280.62L1243.26 327.11L1241 212.22C1240.7 204.933 1240.03 199.807 1239 196.84C1237.61 193.273 1234.68 191.413 1230.23 191.26C1227.7 190.789 1225.13 190.558 1222.55 190.57C1220.55 190.57 1219.48 189.57 1219.48 187.49C1219.48 185.41 1221.42 184.3 1225.29 184.3H1227.49C1229.9 184.3 1233.43 184.417 1238.07 184.65C1242.71 184.87 1246.24 184.99 1248.65 184.99C1250.77 184.99 1253.95 184.87 1258.19 184.65C1262.43 184.43 1265.61 184.3 1267.73 184.3C1271.46 184.3 1273.33 185.37 1273.33 187.49C1273.33 189.61 1272 190.57 1269.27 190.57Z" fill="white"/>
<path d="M1371.71 363.67H1367.22C1364.66 363.67 1360.8 363.557 1355.65 363.33C1350.49 363.1 1346.65 362.99 1344.08 362.99C1342.91 362.99 1341.08 363.06 1338.7 363.22C1336.32 363.38 1334.5 363.44 1333.33 363.44H1326.53C1324.63 363.6 1323.13 363.67 1322.04 363.67C1318.75 363.67 1317.11 362.607 1317.1 360.48C1317.09 358.353 1318.15 357.327 1320.28 357.4H1323.35C1324.16 357.25 1325.35 356.99 1326.92 356.61C1327.7 356.42 1328.41 356.023 1328.98 355.461C1329.54 354.9 1329.95 354.194 1330.15 353.42C1331.98 348.48 1332.98 338.83 1333.15 324.47C1333.3 315.803 1333.38 305.853 1333.37 294.62V218.15C1333.37 216.55 1333.3 214.12 1333.15 210.86C1333.01 207.59 1332.93 205.12 1332.93 203.45V203.11C1332.93 196.443 1330.66 192.567 1326.13 191.48C1325.68 191.376 1325.24 191.225 1324.82 191.03C1323.11 190.762 1321.39 190.608 1319.66 190.57C1317.54 190.57 1316.48 189.62 1316.48 187.72C1316.48 185.44 1318.13 184.3 1321.42 184.3H1325.7C1327.35 184.308 1329 184.462 1330.63 184.76L1332.93 184.53C1334.1 184.53 1335.93 184.61 1338.53 184.76C1341.13 184.91 1342.95 184.99 1344.12 184.99C1345.29 184.99 1347.12 184.91 1349.49 184.76C1351.86 184.61 1353.69 184.53 1354.86 184.53H1361.66C1363.56 184.38 1365.06 184.3 1366.16 184.3C1369.6 184.3 1371.31 185.44 1371.31 187.72C1371.31 189.62 1370.18 190.57 1367.91 190.57H1367.26C1362.14 190.57 1358.85 191.977 1357.39 194.79C1356.44 196.463 1355.74 199.577 1355.3 204.13C1355.16 207.71 1355.09 212.377 1355.08 218.13V294.37C1355.08 325.97 1354.94 336.073 1354.65 324.68C1354.94 339.493 1356.07 348.99 1358.04 353.17C1358.92 355.07 1360.79 356.247 1363.64 356.7C1366.9 357.221 1370.21 357.448 1373.51 357.38C1375.77 357.38 1376.91 358.38 1376.91 360.46C1376.91 362.54 1375.15 363.67 1371.71 363.67Z" fill="white"/>
<path d="M699.75 458.91C699.542 460.827 699.208 462.727 698.75 464.6C698.671 465.018 698.561 465.429 698.42 465.83C698.328 466.049 698.192 466.246 698.019 466.41C697.847 466.573 697.643 466.699 697.42 466.78C697.267 466.839 697.119 466.913 696.98 467C694.555 467.796 692.022 468.211 689.47 468.23C688.54 468.31 687.6 468.35 686.66 468.35C678.66 468.35 672.39 466.223 667.85 461.97C664.877 459.233 662.788 455.671 661.85 451.74C661.232 449.322 660.926 446.835 660.94 444.34C660.965 442.814 661.112 441.293 661.38 439.79C661.968 436.667 663.2 433.7 665 431.08C667.272 427.761 670.437 425.154 674.13 423.56C677.53 422.207 681.173 421.574 684.83 421.7C686.716 421.675 688.601 421.789 690.47 422.04C692.91 422.37 695.79 422.82 699.13 423.39C699.35 423.422 699.55 423.538 699.687 423.713C699.825 423.888 699.89 424.108 699.87 424.33C699.87 423.99 699.8 424.65 699.65 426.33C699.567 427.127 699.53 427.929 699.54 428.73C699.542 429.163 699.505 429.594 699.43 430.02L699.49 432.11C699.483 432.368 699.463 432.625 699.43 432.88C699.43 433.22 699.38 433.48 699.38 433.65C699.31 434.65 699.02 435.22 698.53 435.22C698.04 435.22 697.73 434.7 697.73 433.65V433.28C697.764 432.287 697.578 431.299 697.186 430.386C696.794 429.473 696.204 428.658 695.46 428C693.06 425.813 689.393 424.717 684.46 424.71C681.856 424.61 679.256 424.99 676.79 425.83C674.913 426.519 673.193 427.577 671.73 428.94C668.47 432.18 666.837 437.18 666.83 443.94C666.712 449.467 668.778 454.817 672.58 458.83C674.373 460.802 676.566 462.369 679.013 463.424C681.461 464.48 684.105 465 686.77 464.95C688.646 464.971 690.52 464.797 692.36 464.43C693.324 464.247 694.238 463.859 695.039 463.291C695.839 462.723 696.508 461.99 697 461.14C697.436 460.289 697.772 459.389 698 458.46C698.129 458.117 698.223 457.762 698.28 457.4C698.46 456.58 698.76 456.17 699.18 456.17C699.7 456.17 699.95 456.6 699.95 457.46C700 457.57 699.9 458.06 699.75 458.91Z" fill="white"/>
<path d="M745.73 465.83C745.744 465.972 745.705 466.115 745.62 466.23C745.554 466.498 745.43 466.749 745.257 466.965C745.085 467.181 744.867 467.356 744.62 467.48C743.706 467.69 742.767 467.771 741.83 467.72C740.143 467.72 737.63 467.657 734.29 467.53C730.95 467.403 728.427 467.343 726.72 467.35H726.45C726.304 467.339 726.156 467.339 726.01 467.35H724.08C723.951 467.353 723.824 467.374 723.7 467.41H722.46C721.89 467.41 721.46 467.47 721.22 467.47C720.4 467.47 719.99 467.2 719.99 466.67C719.975 466.565 719.984 466.459 720.018 466.358C720.051 466.258 720.107 466.167 720.182 466.092C720.257 466.017 720.348 465.961 720.448 465.928C720.549 465.894 720.655 465.885 720.76 465.9H721.55L722.42 465.7C722.615 465.647 722.795 465.546 722.941 465.406C723.088 465.267 723.197 465.093 723.26 464.9C723.832 462.525 724.071 460.081 723.97 457.64C723.97 455.46 724.03 452.97 724.03 450.15V431C724.03 430.6 724.01 429.99 723.97 429.17C723.97 428.35 723.97 427.73 723.97 427.31V427.23C724.014 426.534 723.857 425.84 723.52 425.23C723.085 424.686 722.459 424.329 721.77 424.23C721.59 424.23 721.26 424.16 720.77 424.12C720.643 424.083 720.512 424.063 720.38 424.06H719.94C719.41 424.06 719.14 423.82 719.14 423.35C719.14 422.88 719.56 422.49 720.38 422.49L722.31 422.55C722.78 422.55 723.5 422.55 724.45 422.55L726.73 422.61C727.08 422.61 727.58 422.61 728.22 422.55C728.86 422.49 729.35 422.55 729.68 422.55H731.49C732.077 422.51 732.527 422.49 732.84 422.49C733.7 422.49 734.13 422.78 734.13 423.35C734.13 423.92 733.85 424.06 733.28 424.06C732.972 424.068 732.664 424.098 732.36 424.15C732.072 424.193 731.781 424.22 731.49 424.23C731.206 424.267 730.933 424.365 730.689 424.517C730.446 424.668 730.238 424.871 730.08 425.11C729.773 425.857 729.601 426.653 729.57 427.46C729.57 428.36 729.51 429.53 729.51 430.98V450.21C729.51 458.21 729.887 462.613 730.64 463.42C731.39 464.22 733.55 464.62 737.1 464.62C738.61 464.62 739.95 464.56 741.1 464.45C743.227 464.137 744.537 462.553 745.03 459.7C745.14 458.96 745.43 458.59 745.89 458.59C746.35 458.59 746.6 459.02 746.6 459.88C746.546 461.891 746.254 463.888 745.73 465.83Z" fill="white"/>
<path d="M774.05 445V445.06V458.24C774.05 461.4 774.41 463.24 775.13 463.8C775.85 464.36 777.53 464.61 780.19 464.61H781.48C784.41 464.61 786.24 463.99 786.95 462.76C787.376 461.924 787.666 461.027 787.81 460.1C787.92 459.28 788.19 458.87 788.63 458.87C789.07 458.87 789.37 459.26 789.37 460.04V460.15C789.332 461.179 789.204 462.203 788.99 463.21C788.983 463.401 788.963 463.592 788.93 463.78V464.44C788.77 465.03 788.63 465.61 788.52 466.18C788.464 466.46 788.345 466.724 788.172 466.951C787.999 467.178 787.776 467.362 787.52 467.49C786.75 467.689 785.954 467.77 785.16 467.73C782.12 467.73 778.94 467.667 775.62 467.54C772.3 467.42 770.84 467.36 771.25 467.36H771.03C770.884 467.349 770.736 467.349 770.59 467.36H769.1C768.707 467.36 768.157 467.38 767.45 467.42C766.743 467.46 766.203 467.48 765.83 467.48C765 467.48 764.59 467.21 764.59 466.68C764.575 466.575 764.584 466.469 764.618 466.368C764.651 466.268 764.707 466.177 764.782 466.102C764.857 466.027 764.948 465.971 765.048 465.938C765.149 465.904 765.255 465.895 765.36 465.91H766.16L767.02 465.71C767.217 465.66 767.398 465.56 767.545 465.42C767.692 465.28 767.801 465.104 767.86 464.91C768.431 462.534 768.674 460.092 768.58 457.65C768.58 455.47 768.58 452.98 768.58 450.16V431C768.58 430.6 768.58 430 768.58 429.17C768.58 428.34 768.52 427.73 768.52 427.31V427.23C768.564 426.534 768.407 425.84 768.07 425.23C767.635 424.686 767.009 424.329 766.32 424.23C766.14 424.23 765.82 424.16 765.32 424.12C765.193 424.083 765.062 424.063 764.93 424.06H764.49C763.96 424.06 763.7 423.82 763.7 423.35C763.7 422.88 764.11 422.49 764.93 422.49L766.86 422.55C767.34 422.55 768.05 422.55 769 422.55L771.29 422.61H781.82C782.66 422.61 783.93 422.55 785.62 422.44L786.62 422.24H786.68C786.765 422.153 786.867 422.085 786.98 422.04C787.109 421.981 787.249 421.951 787.39 421.95C787.82 421.95 788.03 422.27 788.03 422.95C788.03 422.95 787.85 423.84 787.5 425.75V425.69C787.5 426.2 787.5 427.21 787.34 428.69C787.348 428.998 787.328 429.306 787.28 429.61V429.75C787.1 430.28 786.83 430.55 786.49 430.55C785.97 430.55 785.72 430.18 785.72 429.44C785.708 429.008 785.672 428.577 785.61 428.15L785.44 427.63C785.312 427.235 785.081 426.881 784.772 426.604C784.463 426.326 784.086 426.135 783.68 426.05C782.553 425.78 781.399 425.64 780.24 425.63C778.06 425.56 776.45 425.52 775.4 425.52H774.1V442.1H778.62C780.627 442.166 782.636 442.042 784.62 441.73C784.922 441.67 785.194 441.507 785.39 441.27L785.64 441.04C785.97 440.6 786.26 440.38 786.52 440.38C786.98 440.38 787.21 440.68 787.21 441.27C787.21 441.38 787.1 442.03 786.88 443.21C786.637 444.896 786.517 446.597 786.52 448.3V448.59C786.52 449.37 786.26 449.76 785.75 449.76C785.24 449.76 785.01 449.46 785.01 448.87C785.028 448.262 784.954 447.655 784.79 447.07C784.79 447 784.7 446.85 784.62 446.64C784.372 446.206 784.012 445.847 783.577 445.601C783.143 445.355 782.65 445.23 782.15 445.24C781.36 445.24 778.67 445.15 774.05 445Z" fill="white"/>
<path d="M814.88 465.66V465.89C815.05 466.44 815.58 466.72 816.48 466.72C816.623 466.76 816.771 466.78 816.92 466.78H817.36C818 466.78 818.36 467.02 818.36 467.52C818.36 468.02 817.73 468.35 816.46 468.35H815.39C814.93 468.35 814.24 468.35 813.3 468.26C812.36 468.17 811.67 468.18 811.21 468.18C810.75 468.18 809.78 468.18 808.61 468.26C807.44 468.34 806.61 468.35 806.04 468.35H804.64C803.43 468.35 802.82 468.07 802.82 467.52C802.82 466.97 803.11 466.78 803.67 466.78C804.195 466.766 804.719 466.726 805.24 466.66C805.375 466.586 805.526 466.549 805.68 466.55C806.279 466.338 806.853 466.06 807.39 465.72C808.07 465.28 808.76 464.15 809.48 462.32L823.26 426.39C823.619 425.209 824.123 424.077 824.76 423.02C824.858 422.88 824.986 422.763 825.135 422.679C825.284 422.594 825.449 422.543 825.62 422.53C825.843 422.551 826.049 422.655 826.2 422.82C826.544 423.193 826.815 423.627 827 424.1L828.35 427.1C828.903 428.36 829.837 430.627 831.15 433.9L839.6 454.85C840.767 457.75 841.537 459.723 841.91 460.77C843.01 463.71 844 465.48 844.91 466.09C844.972 466.117 845.03 466.154 845.08 466.2C845.792 466.545 846.569 466.732 847.36 466.75C848.09 466.75 848.46 466.99 848.46 467.49C848.46 467.99 848.01 468.32 847.11 468.32H846.43C846.139 468.316 845.851 468.276 845.57 468.2H844.39C843.57 468.2 843.01 468.15 842.71 468.15C842.22 468.15 841.47 468.15 840.46 468.23C839.45 468.31 838.7 468.32 838.2 468.32H837.2C836.2 468.32 835.64 468.02 835.64 467.43C835.64 466.84 835.96 466.75 836.64 466.75H837.24C837.412 466.748 837.583 466.727 837.75 466.69L838.59 466.52C838.722 466.442 838.836 466.338 838.925 466.214C839.015 466.09 839.078 465.949 839.11 465.8L839.17 465.74V465.52C839.09 464.794 838.915 464.081 838.65 463.4C838.21 461.88 837.447 459.64 836.36 456.68C832.153 444.96 829.037 436.683 827.01 431.85L815.68 463V462.95C815.315 463.821 815.046 464.73 814.88 465.66Z" fill="white"/>
<path d="M906 424.1C904.42 424.1 903.5 424.55 903.25 425.45C903.021 426.663 902.927 427.897 902.97 429.13L902.86 463.37C902.907 464.582 902.853 465.796 902.7 467C902.57 467.63 902.32 467.95 901.95 467.95C901.58 467.95 900.01 466.67 897.61 464.12C895.21 461.57 891.61 457.71 886.8 452.54L886.52 452.25C885.7 451.32 884.44 449.94 882.76 448.11L882.62 447.97C881.347 446.637 876.753 441.397 868.84 432.25L869.5 459.17C869.475 460.832 869.687 462.488 870.13 464.09C870.203 464.542 870.434 464.954 870.782 465.252C871.13 465.551 871.572 465.716 872.03 465.72C872.731 465.883 873.45 465.96 874.17 465.95C874.74 465.95 875.03 466.2 875.03 466.72C875.03 467.24 874.56 467.52 873.62 467.52C872.01 467.52 870.62 467.52 869.62 467.4H868.62H867.69C867.08 467.4 866.18 467.4 864.98 467.48C863.78 467.56 862.87 467.57 862.27 467.57C861.44 467.57 861.03 467.3 861.03 466.77C861.03 466.24 861.31 466 861.87 466C862.383 466.004 862.894 465.963 863.4 465.88C863.845 465.745 864.269 465.55 864.66 465.3C864.938 464.971 865.112 464.568 865.16 464.14C865.394 462.31 865.504 460.465 865.49 458.62V425.04C865.472 424.255 865.509 423.47 865.6 422.69C865.75 422.07 866.03 421.75 866.45 421.75C866.87 421.75 867.23 422.1 867.8 422.81C868.131 423.117 868.436 423.451 868.71 423.81C869.33 424.53 871.33 426.787 874.71 430.58L886.59 443.87C887.16 444.5 888.02 445.46 889.18 446.73L899.44 458.39L898.86 429.58C898.86 428.278 898.695 426.981 898.37 425.72C898.198 425.284 897.892 424.914 897.497 424.663C897.102 424.411 896.638 424.291 896.17 424.32C895.533 424.206 894.887 424.149 894.24 424.15C894.135 424.165 894.029 424.156 893.928 424.122C893.828 424.089 893.737 424.033 893.662 423.958C893.588 423.883 893.531 423.792 893.498 423.692C893.464 423.591 893.455 423.485 893.47 423.38C893.47 422.85 893.96 422.58 894.93 422.58H895.48C896.08 422.58 896.97 422.58 898.13 422.67C899.29 422.76 900.18 422.75 900.79 422.75C901.4 422.75 902.12 422.75 903.18 422.67C904.24 422.59 905.04 422.58 905.57 422.58C906.51 422.58 906.98 422.85 906.98 423.38C906.98 423.91 906.65 424.1 906 424.1Z" fill="white"/>
<path d="M941.52 467.52H940.39C939.75 467.52 938.78 467.52 937.49 467.43C936.2 467.34 935.23 467.35 934.59 467.35C934.3 467.35 933.85 467.35 933.24 467.35C932.63 467.35 932.19 467.41 931.89 467.41H930.19C929.71 467.41 929.34 467.47 929.06 467.47C928.24 467.47 927.82 467.2 927.82 466.67C927.82 466.14 928.09 465.9 928.62 465.9H929.39L930.28 465.7C930.475 465.651 930.654 465.551 930.798 465.411C930.942 465.27 931.046 465.094 931.1 464.9C931.687 462.527 931.936 460.083 931.84 457.64C931.84 455.46 931.89 452.97 931.89 450.15V431C931.89 430.6 931.89 430 931.84 429.17C931.79 428.34 931.78 427.73 931.78 427.31V427.23C931.78 425.55 931.21 424.58 930.08 424.31L929.75 424.2C929.323 424.129 928.892 424.089 928.46 424.08C927.92 424.08 927.66 423.84 927.66 423.37C927.66 422.9 928.07 422.51 928.9 422.51H930C930.416 422.513 930.83 422.55 931.24 422.62H931.81C932.11 422.62 932.57 422.62 933.22 422.62C933.87 422.62 934.33 422.68 934.62 422.68C934.91 422.68 935.36 422.68 935.97 422.62C936.58 422.56 937.02 422.62 937.31 422.62H939C939.48 422.62 939.85 422.56 940.13 422.56C940.99 422.56 941.42 422.85 941.42 423.42C941.42 423.99 941.14 424.13 940.57 424.13H940.4C939.12 424.13 938.29 424.48 937.93 425.19C937.609 425.93 937.429 426.724 937.4 427.53C937.4 428.43 937.35 429.6 937.35 431.05V450.17C937.35 458.097 937.313 460.63 937.24 457.77C937.31 461.49 937.6 463.87 938.09 464.92C938.228 465.175 938.429 465.39 938.674 465.544C938.92 465.698 939.201 465.787 939.49 465.8C940.319 465.945 941.159 466.012 942 466C942.57 466 942.85 466.25 942.85 466.77C942.85 467.29 942.38 467.52 941.52 467.52Z" fill="white"/>
<path d="M1006.61 424.1C1005.04 424.1 1004.12 424.55 1003.86 425.45C1003.64 426.664 1003.55 427.897 1003.59 429.13L1003.48 463.37C1003.53 464.583 1003.47 465.797 1003.31 467C1003.18 467.63 1002.93 467.95 1002.57 467.95C1002.21 467.95 1000.63 466.67 998.22 464.12C995.81 461.57 992.22 457.71 987.41 452.54L987.14 452.25C986.31 451.32 985.06 449.94 983.37 448.11L983.23 447.97C981.97 446.637 977.377 441.397 969.45 432.25L970.11 459.17C970.092 460.832 970.307 462.488 970.75 464.09C970.823 464.541 971.052 464.951 971.398 465.249C971.744 465.547 972.184 465.714 972.64 465.72C973.345 465.883 974.067 465.96 974.79 465.95C975.36 465.95 975.64 466.2 975.64 466.72C975.64 467.24 975.18 467.52 974.24 467.52C972.627 467.52 971.293 467.48 970.24 467.4H969.24H968.3C967.7 467.4 966.79 467.4 965.59 467.48C964.39 467.56 963.49 467.57 962.88 467.57C962.06 467.57 961.65 467.3 961.65 466.77C961.65 466.24 961.92 466 962.48 466C962.993 466.004 963.504 465.963 964.01 465.88C964.457 465.743 964.884 465.548 965.28 465.3C965.554 464.97 965.724 464.566 965.77 464.14C966.004 462.31 966.114 460.465 966.1 458.62L966.16 425.04C966.136 424.255 966.173 423.469 966.27 422.69C966.41 422.07 966.7 421.75 967.12 421.75C967.54 421.75 967.9 422.1 968.47 422.81C968.801 423.114 969.102 423.449 969.37 423.81C970.003 424.53 972.003 426.787 975.37 430.58L987.25 443.87L989.83 446.73L1000.1 458.39L999.52 429.58C999.518 428.277 999.35 426.98 999.02 425.72C998.849 425.283 998.544 424.913 998.149 424.661C997.753 424.409 997.288 424.29 996.82 424.32C996.183 424.205 995.537 424.148 994.89 424.15C994.786 424.163 994.681 424.153 994.582 424.118C994.483 424.084 994.393 424.028 994.319 423.953C994.246 423.879 994.19 423.788 994.158 423.689C994.125 423.589 994.115 423.484 994.13 423.38C994.13 422.85 994.61 422.58 995.58 422.58H996.13C996.74 422.58 997.62 422.58 998.79 422.67C999.96 422.76 1000.79 422.75 1001.44 422.75C1002.09 422.75 1002.77 422.75 1003.84 422.67C1004.91 422.59 1005.7 422.58 1006.23 422.58C1007.16 422.58 1007.63 422.85 1007.63 423.38C1007.63 423.91 1007.29 424.1 1006.61 424.1Z" fill="white"/>
<path d="M1068 446.4H1067.84C1066.56 446.4 1065.73 446.76 1065.35 447.48C1064.97 448.21 1064.79 449.97 1064.79 452.77V462.15C1064.79 464.15 1064.5 465.34 1063.93 465.6L1063.88 465.66C1060.03 467.32 1055.91 468.233 1051.72 468.35C1049.87 468.32 1048.02 468.186 1046.19 467.95C1041.25 467.43 1036.6 465.345 1032.92 462C1030.62 459.872 1028.85 457.225 1027.78 454.28C1026.67 451.319 1026.1 448.182 1026.1 445.02C1026.06 441.19 1026.85 437.397 1028.41 433.9C1029.95 430.428 1032.48 427.481 1035.67 425.42C1038.71 423.463 1042.17 422.276 1045.77 421.96C1047.45 421.777 1049.14 421.68 1050.83 421.67H1051.57C1053.38 421.717 1055.18 421.907 1056.96 422.24C1058.14 422.45 1059.3 422.67 1060.46 422.9C1061.63 423.14 1062.81 423.274 1064 423.3C1064.72 423.38 1065.08 423.67 1065.08 424.19C1065.08 424.45 1065 425.19 1064.86 426.53C1064.75 428.17 1064.69 430.17 1064.69 432.53C1064.69 433.58 1064.39 434.11 1063.78 434.11C1063.38 434.11 1063.13 433.71 1063.04 432.93C1062.93 431.338 1062.34 429.816 1061.36 428.56C1059.03 425.933 1054.89 424.62 1048.96 424.62C1044.15 424.62 1040.21 425.887 1037.13 428.42C1033.54 431.393 1031.75 436.25 1031.74 442.99C1031.7 445.452 1032.07 447.903 1032.81 450.25C1033.7 453.475 1035.34 456.444 1037.6 458.91C1039.45 460.888 1041.69 462.456 1044.18 463.516C1046.68 464.575 1049.36 465.101 1052.07 465.06C1054.21 465.189 1056.35 464.798 1058.31 463.92C1058.62 463.759 1058.89 463.512 1059.06 463.207C1059.24 462.902 1059.33 462.552 1059.31 462.2V452.2C1059.41 450.739 1059.28 449.272 1058.93 447.85C1058.51 446.96 1057.54 446.49 1056.04 446.45C1055.91 446.416 1055.78 446.399 1055.65 446.4H1055.22C1054.68 446.4 1054.42 446.17 1054.42 445.71C1054.42 445.25 1054.83 444.82 1055.65 444.82L1057.58 444.88C1058.06 444.88 1058.77 444.88 1059.73 444.94L1062 445C1062.29 445 1062.73 445 1063.33 444.95C1063.93 444.9 1064.38 444.89 1064.69 444.89H1066.37C1066.86 444.89 1067.24 444.83 1067.5 444.83C1068.36 444.83 1068.79 445.13 1068.79 445.72C1068.79 446.31 1068.52 446.4 1068 446.4Z" fill="white"/>
<path d="M1135.27 458.34C1135.04 459.838 1134.5 461.274 1133.7 462.561C1132.9 463.848 1131.84 464.96 1130.6 465.83C1128.03 467.593 1124.96 468.477 1121.85 468.35C1119.18 468.398 1116.53 467.841 1114.1 466.72C1113.71 466.482 1113.39 466.135 1113.19 465.72C1113.14 465.215 1113.12 464.707 1113.13 464.2C1113.13 464.28 1113.19 462.85 1113.3 459.92C1113.3 459.76 1113.3 459.43 1113.35 458.92C1113.39 458.618 1113.41 458.314 1113.41 458.01C1113.48 457.12 1113.75 456.67 1114.21 456.67C1114.67 456.67 1115 457.01 1115 457.67C1115 460.83 1116 462.983 1118 464.13C1119.55 464.977 1121.29 465.417 1123.06 465.41C1125.03 465.433 1126.94 464.748 1128.45 463.48C1129.21 462.87 1129.82 462.092 1130.22 461.206C1130.63 460.321 1130.82 459.353 1130.79 458.38V458.04C1130.77 456.661 1130.48 455.3 1129.91 454.041C1129.35 452.782 1128.54 451.652 1127.52 450.72C1126.65 449.83 1124.77 448.1 1121.88 445.55C1119.9 443.915 1118.14 442.029 1116.65 439.94C1115.2 437.778 1114.44 435.232 1114.45 432.63C1114.38 431.081 1114.66 429.537 1115.27 428.114C1115.89 426.691 1116.82 425.427 1118 424.42C1120.4 422.535 1123.39 421.564 1126.44 421.68C1128.25 421.657 1130.05 421.869 1131.81 422.31C1132.44 422.471 1133.09 422.558 1133.74 422.57C1134.32 422.57 1134.61 422.83 1134.61 423.37C1134.61 423.48 1134.61 423.66 1134.56 423.91L1134.45 425.08C1134.45 426.13 1134.39 427.63 1134.39 429.57C1134.39 430.71 1134.12 431.28 1133.59 431.28C1133.06 431.28 1132.93 430.93 1132.82 430.23C1132.72 429.767 1132.65 429.3 1132.6 428.83C1132.36 427.753 1131.78 426.78 1130.95 426.05C1129.33 424.896 1127.36 424.341 1125.37 424.48C1123.64 424.415 1121.95 425.037 1120.68 426.21C1120.06 426.82 1119.58 427.554 1119.26 428.364C1118.95 429.174 1118.81 430.042 1118.85 430.91C1118.94 433.128 1119.92 435.217 1121.55 436.72C1122.78 438.071 1124.12 439.322 1125.55 440.46C1127.91 442.241 1130.1 444.251 1132.07 446.46C1134.28 449.063 1135.5 452.365 1135.51 455.78C1135.51 456.639 1135.43 457.496 1135.27 458.34Z" fill="white"/>
<path d="M1166.37 445C1166.37 445.008 1166.37 445.017 1166.37 445.025C1166.37 445.033 1166.38 445.041 1166.38 445.047C1166.39 445.053 1166.4 445.057 1166.4 445.059C1166.41 445.062 1166.42 445.062 1166.43 445.06V458.24C1166.43 461.4 1166.78 463.24 1167.5 463.8C1168.22 464.36 1169.9 464.61 1172.56 464.61H1173.85C1176.78 464.61 1178.61 463.99 1179.32 462.76C1179.75 461.924 1180.04 461.027 1180.18 460.1C1180.29 459.28 1180.56 458.87 1181 458.87C1181.44 458.87 1181.74 459.26 1181.74 460.04V460.15C1181.7 461.179 1181.57 462.203 1181.36 463.21C1181.36 463.33 1181.36 463.52 1181.31 463.78V464.44C1181.14 465.027 1181 465.607 1180.89 466.18C1180.83 466.46 1180.72 466.724 1180.54 466.951C1180.37 467.178 1180.15 467.362 1179.89 467.49C1179.12 467.69 1178.32 467.771 1177.53 467.73C1174.49 467.73 1171.31 467.667 1167.99 467.54C1164.67 467.42 1163.21 467.36 1163.62 467.36H1163.4C1163.25 467.349 1163.11 467.349 1162.96 467.36H1161.39C1161 467.36 1160.45 467.38 1159.74 467.42C1159.03 467.46 1158.49 467.48 1158.12 467.48C1157.29 467.48 1156.88 467.21 1156.88 466.68C1156.86 466.575 1156.87 466.469 1156.91 466.368C1156.94 466.268 1157 466.177 1157.07 466.102C1157.15 466.027 1157.24 465.971 1157.34 465.938C1157.44 465.904 1157.55 465.895 1157.65 465.91H1158.45L1159.31 465.71C1159.51 465.66 1159.69 465.56 1159.84 465.42C1159.98 465.28 1160.09 465.104 1160.15 464.91C1160.72 462.534 1160.96 460.092 1160.87 457.65C1160.87 455.47 1160.92 452.98 1160.92 450.16V431C1160.92 430.6 1160.92 430 1160.87 429.17C1160.82 428.34 1160.81 427.73 1160.81 427.31V427.23C1160.85 426.534 1160.7 425.84 1160.36 425.23C1159.93 424.685 1159.3 424.327 1158.61 424.23C1158.43 424.23 1158.11 424.16 1157.61 424.12C1157.48 424.083 1157.35 424.063 1157.22 424.06H1156.78C1156.25 424.06 1155.99 423.82 1155.99 423.35C1155.99 422.88 1156.4 422.49 1157.22 422.49L1159.15 422.55C1159.63 422.55 1160.34 422.55 1161.29 422.55L1163.58 422.61H1174.11C1174.95 422.61 1176.22 422.55 1177.91 422.44L1178.91 422.24H1178.97C1179.05 422.153 1179.16 422.085 1179.27 422.04C1179.4 421.98 1179.55 421.949 1179.69 421.95C1180.11 421.95 1180.32 422.27 1180.32 422.95C1180.32 422.95 1180.14 423.84 1179.79 425.75V425.69C1179.79 426.2 1179.79 427.21 1179.63 428.69C1179.64 428.998 1179.62 429.306 1179.57 429.61V429.75C1179.39 430.28 1179.13 430.55 1178.78 430.55C1178.26 430.55 1178.01 430.18 1178.01 429.44C1178 429.008 1177.96 428.577 1177.9 428.15L1177.73 427.63C1177.6 427.235 1177.37 426.881 1177.06 426.604C1176.75 426.326 1176.38 426.135 1175.97 426.05C1174.84 425.78 1173.69 425.64 1172.53 425.63C1170.35 425.56 1168.74 425.52 1167.69 425.52H1166.35V442.1H1170.86C1172.87 442.166 1174.88 442.042 1176.86 441.73C1177.16 441.67 1177.43 441.507 1177.63 441.27L1177.88 441.04C1178.21 440.6 1178.51 440.38 1178.76 440.38C1179.22 440.38 1179.45 440.68 1179.45 441.27C1179.45 441.38 1179.34 442.03 1179.12 443.21C1178.88 444.896 1178.76 446.597 1178.76 448.3V448.59C1178.76 449.37 1178.51 449.76 1177.99 449.76C1177.47 449.76 1177.25 449.46 1177.25 448.87C1177.27 448.262 1177.19 447.655 1177.03 447.07C1177.03 447 1176.94 446.85 1176.86 446.64C1176.61 446.206 1176.25 445.847 1175.82 445.601C1175.38 445.355 1174.89 445.23 1174.39 445.24C1173.68 445.24 1171 445.15 1166.37 445Z" fill="white"/>
<path d="M1233.66 466.72L1233.77 466.83C1231.66 465.594 1229.84 463.919 1228.44 461.92C1227.48 460.64 1226.07 458.723 1224.2 456.17C1223.49 455.17 1222.44 453.66 1221.07 451.65C1220.28 450.49 1219.65 449.65 1219.2 449.03L1219.09 448.91C1218.98 448.886 1218.87 448.849 1218.76 448.8L1211.88 448.68C1211.88 448.68 1211.88 448.68 1211.88 448.8V450.14C1211.88 458.067 1211.84 460.6 1211.76 457.74C1211.84 461.46 1212.11 463.84 1212.59 464.89C1212.73 465.141 1212.93 465.353 1213.18 465.507C1213.42 465.661 1213.7 465.751 1213.99 465.77C1214.82 465.907 1215.66 465.968 1216.5 465.95C1217.05 465.95 1217.32 466.2 1217.32 466.72C1217.32 467.24 1216.89 467.52 1216.03 467.52H1214.9C1213.82 467.52 1212.69 467.52 1211.52 467.4H1208.52L1206.52 467.51H1206C1205.57 467.51 1205.18 467.57 1204.81 467.57H1203.81C1202.98 467.57 1202.57 467.3 1202.57 466.77C1202.55 466.665 1202.56 466.559 1202.6 466.458C1202.63 466.358 1202.69 466.267 1202.76 466.192C1202.84 466.117 1202.93 466.061 1203.03 466.028C1203.13 465.994 1203.24 465.985 1203.34 466H1204.14L1205 465.8C1205.2 465.75 1205.38 465.65 1205.53 465.51C1205.67 465.37 1205.78 465.194 1205.84 465C1206.41 462.624 1206.65 460.182 1206.56 457.74C1206.56 455.56 1206.61 453.07 1206.61 450.25V431C1206.61 430.6 1206.61 430 1206.56 429.17C1206.51 428.34 1206.5 427.73 1206.5 427.31V427.23C1206.54 426.534 1206.39 425.84 1206.05 425.23C1205.62 424.685 1204.99 424.327 1204.3 424.23C1204.12 424.23 1203.8 424.16 1203.3 424.12C1203.17 424.083 1203.04 424.063 1202.91 424.06H1202.47C1201.94 424.06 1201.68 423.82 1201.68 423.35C1201.68 422.88 1202.09 422.49 1202.91 422.49L1204.84 422.55C1205.32 422.55 1206.03 422.55 1206.98 422.55L1209.27 422.61C1209.65 422.61 1210.21 422.61 1210.94 422.55C1211.67 422.49 1212.23 422.55 1212.59 422.55H1214.46C1215.11 422.55 1215.59 422.49 1215.92 422.49C1218.16 422.451 1220.4 422.7 1222.58 423.23C1224.7 423.752 1226.59 424.945 1227.97 426.63C1229.63 428.511 1230.54 430.933 1230.53 433.44C1230.53 438.18 1228.29 442.703 1223.82 447.01L1230.01 455.13C1231.97 457.757 1233.38 459.557 1234.24 460.53C1236.24 462.883 1237.91 464.323 1239.24 464.85C1240.77 465.527 1242.41 465.887 1244.08 465.91C1244.68 465.91 1244.99 466.16 1244.99 466.68C1244.99 467.2 1244.4 467.48 1243.22 467.48H1239.22C1237.33 467.586 1235.45 467.328 1233.66 466.72ZM1215.66 424.56C1214.37 424.518 1213.09 424.663 1211.84 424.99C1211.45 425.06 1211.26 425.33 1211.26 425.79V444.94C1211.26 445.53 1211.72 445.94 1212.66 446.22C1214.24 446.627 1215.87 446.822 1217.5 446.8H1217.75C1218.81 446.805 1219.87 446.65 1220.88 446.34C1222.42 445.79 1223.67 444.42 1224.62 442.25C1225.33 440.422 1225.67 438.471 1225.62 436.51C1225.77 433.506 1224.92 430.536 1223.2 428.07C1222.33 426.911 1221.18 425.985 1219.86 425.373C1218.55 424.761 1217.1 424.482 1215.65 424.56H1215.66Z" fill="white"/>
<path d="M1261.73 428V427.94L1273 459C1275 454.18 1278.12 445.91 1282.35 434.19C1283.43 431.217 1284.19 428.98 1284.63 427.48C1284.89 426.797 1285.06 426.085 1285.15 425.36V425.13H1285.1C1285.07 424.98 1285.01 424.837 1284.92 424.713C1284.83 424.589 1284.71 424.485 1284.58 424.41L1283.74 424.24C1283.57 424.204 1283.4 424.184 1283.23 424.18H1282.62C1281.98 424.18 1281.62 423.94 1281.62 423.47C1281.62 423 1282.14 422.61 1283.19 422.61H1284.19C1284.69 422.61 1285.44 422.61 1286.45 422.7C1287.46 422.79 1288.21 422.78 1288.71 422.78C1289 422.78 1289.56 422.78 1290.38 422.72H1291.57C1291.85 422.652 1292.13 422.615 1292.42 422.61H1293.11C1294 422.61 1294.45 422.88 1294.45 423.41C1294.45 423.94 1294.09 424.18 1293.35 424.18C1292.56 424.191 1291.79 424.368 1291.07 424.7L1290.91 424.81C1290.01 425.443 1289.01 427.227 1287.91 430.16C1287.54 431.16 1286.77 433.16 1285.6 436.07L1277.15 457.02C1275.82 460.3 1274.88 462.56 1274.35 463.8L1273 466.78C1272.81 467.251 1272.54 467.685 1272.2 468.06C1272.05 468.216 1271.85 468.318 1271.63 468.35C1271.46 468.336 1271.29 468.284 1271.14 468.197C1270.99 468.111 1270.86 467.992 1270.76 467.85C1270.14 466.789 1269.63 465.662 1269.26 464.49L1255.48 428.56C1254.76 426.71 1254.07 425.56 1253.39 425.16C1252.86 424.805 1252.29 424.525 1251.68 424.33C1251.53 424.326 1251.38 424.288 1251.24 424.22C1250.72 424.154 1250.2 424.114 1249.68 424.1C1249.11 424.1 1248.82 423.84 1248.82 423.33C1248.82 422.82 1249.43 422.53 1250.64 422.53H1252.04C1252.59 422.53 1253.45 422.53 1254.61 422.62C1255.77 422.71 1256.61 422.7 1257.21 422.7C1257.81 422.7 1258.37 422.7 1259.3 422.62C1260.23 422.54 1260.93 422.53 1261.39 422.53H1262.47C1263.73 422.53 1264.36 422.8 1264.36 423.33C1264.36 423.86 1264.04 424.1 1263.36 424.1H1263C1262.85 424.1 1262.7 424.121 1262.56 424.16C1261.66 424.16 1261.13 424.44 1260.97 424.99V425.22C1261.12 426.172 1261.37 427.105 1261.73 428Z" fill="white"/>
<path d="M1323 467.52H1321.87C1321.23 467.52 1320.26 467.52 1318.97 467.43C1317.68 467.34 1316.71 467.35 1316.07 467.35C1315.77 467.35 1315.32 467.35 1314.72 467.35C1314.12 467.35 1313.66 467.41 1313.37 467.41H1311.67C1311.19 467.41 1310.81 467.47 1310.54 467.47C1309.71 467.47 1309.3 467.2 1309.3 466.67C1309.3 466.14 1309.57 465.9 1310.1 465.9H1310.87L1311.76 465.7C1311.95 465.648 1312.13 465.548 1312.27 465.407C1312.41 465.267 1312.52 465.092 1312.57 464.9C1313.03 463.66 1313.28 461.24 1313.31 457.64C1313.31 455.46 1313.37 452.97 1313.37 450.15V431C1313.37 430.6 1313.35 429.99 1313.31 429.17C1313.31 428.35 1313.31 427.73 1313.31 427.31V427.23C1313.31 425.55 1312.74 424.58 1311.6 424.31L1311.27 424.2C1310.84 424.129 1310.41 424.089 1309.98 424.08C1309.45 424.08 1309.18 423.84 1309.18 423.37C1309.18 422.9 1309.6 422.51 1310.42 422.51H1311.49C1311.91 422.512 1312.32 422.549 1312.73 422.62H1313.31C1313.6 422.62 1314.07 422.62 1314.71 422.62C1315.35 422.62 1315.82 422.68 1316.12 422.68C1316.42 422.68 1316.86 422.68 1317.46 422.62C1318.06 422.56 1318.52 422.62 1318.81 422.62H1320.52C1320.99 422.62 1321.37 422.56 1321.64 422.56C1322.51 422.56 1322.94 422.85 1322.94 423.42C1322.94 423.99 1322.65 424.13 1322.08 424.13H1321.92C1320.64 424.13 1319.81 424.48 1319.44 425.19C1319.12 425.931 1318.95 426.725 1318.92 427.53C1318.92 428.43 1318.87 429.6 1318.87 431.05V450.17C1318.87 458.097 1318.83 460.63 1318.76 457.77C1318.83 461.49 1319.11 463.873 1319.61 464.92C1319.75 465.175 1319.95 465.39 1320.19 465.544C1320.44 465.698 1320.72 465.787 1321.01 465.8C1321.83 465.937 1322.66 465.997 1323.49 465.98C1324.05 465.98 1324.34 466.23 1324.34 466.75C1324.34 467.27 1323.84 467.52 1323 467.52Z" fill="white"/>
<path d="M1381.72 458.91C1381.51 460.826 1381.17 462.727 1380.72 464.6C1380.65 465.02 1380.54 465.432 1380.39 465.83C1380.3 466.049 1380.16 466.246 1379.99 466.41C1379.82 466.573 1379.61 466.699 1379.39 466.78C1379.24 466.839 1379.09 466.913 1378.95 467C1376.53 467.796 1373.99 468.211 1371.44 468.23C1370.51 468.31 1369.57 468.35 1368.64 468.35C1360.64 468.35 1354.37 466.223 1349.82 461.97C1346.85 459.233 1344.76 455.671 1343.82 451.74C1343.2 449.322 1342.9 446.835 1342.91 444.34C1342.93 442.814 1343.08 441.293 1343.35 439.79C1343.92 436.672 1345.13 433.706 1346.9 431.08C1349.17 427.763 1352.34 425.156 1356.03 423.56C1359.43 422.207 1363.07 421.574 1366.73 421.7C1368.62 421.675 1370.5 421.788 1372.37 422.04C1374.81 422.373 1377.7 422.823 1381.03 423.39C1381.25 423.42 1381.45 423.535 1381.59 423.71C1381.73 423.885 1381.8 424.107 1381.78 424.33C1381.78 423.99 1381.7 424.65 1381.56 426.33C1381.47 427.127 1381.44 427.929 1381.45 428.73C1381.45 429.162 1381.41 429.594 1381.34 430.02L1381.39 432.11C1381.39 432.28 1381.39 432.53 1381.34 432.88C1381.31 433.136 1381.29 433.393 1381.28 433.65C1381.21 434.65 1380.92 435.22 1380.43 435.22C1379.94 435.22 1379.63 434.7 1379.63 433.65V433.28C1379.67 432.282 1379.49 431.288 1379.1 430.368C1378.71 429.448 1378.12 428.626 1377.38 427.96C1374.97 425.773 1371.31 424.677 1366.38 424.67C1363.77 424.569 1361.17 424.949 1358.7 425.79C1356.82 426.479 1355.1 427.537 1353.64 428.9C1350.38 432.14 1348.75 437.14 1348.74 443.9C1348.62 449.427 1350.69 454.777 1354.49 458.79C1356.28 460.763 1358.48 462.329 1360.93 463.385C1363.38 464.44 1366.02 464.96 1368.69 464.91C1370.56 464.931 1372.43 464.757 1374.27 464.39C1375.23 464.212 1376.13 463.831 1376.93 463.274C1377.73 462.717 1378.39 461.996 1378.89 461.16C1379.35 460.312 1379.71 459.412 1379.96 458.48C1380.09 458.137 1380.18 457.782 1380.24 457.42C1380.42 456.6 1380.72 456.19 1381.15 456.19C1381.58 456.19 1381.91 456.62 1381.91 457.48C1381.93 457.57 1381.86 458.06 1381.72 458.91Z" fill="white"/>
<path d="M1411.41 445C1411.41 445 1411.41 445.06 1411.46 445.06V458.24C1411.46 461.4 1411.82 463.24 1412.54 463.8C1413.26 464.36 1414.94 464.61 1417.6 464.61H1418.89C1421.82 464.61 1423.65 463.99 1424.36 462.76C1424.79 461.924 1425.08 461.027 1425.22 460.1C1425.33 459.28 1425.6 458.87 1426.04 458.87C1426.48 458.87 1426.78 459.26 1426.78 460.04V460.15C1426.74 461.179 1426.61 462.203 1426.4 463.21C1426.39 463.401 1426.37 463.592 1426.34 463.78V464.44C1426.18 465.03 1426.04 465.61 1425.93 466.18C1425.88 466.461 1425.76 466.725 1425.58 466.952C1425.41 467.18 1425.19 467.364 1424.93 467.49C1424.16 467.69 1423.37 467.771 1422.58 467.73C1419.54 467.73 1416.36 467.667 1413.04 467.54C1409.72 467.42 1408.26 467.36 1408.67 467.36H1408.45C1408.3 467.349 1408.16 467.349 1408.01 467.36H1406.44C1406.05 467.36 1405.5 467.38 1404.79 467.42C1404.08 467.46 1403.54 467.48 1403.17 467.48C1402.34 467.48 1401.93 467.21 1401.93 466.68C1401.91 466.575 1401.92 466.469 1401.96 466.368C1401.99 466.268 1402.05 466.177 1402.12 466.102C1402.2 466.027 1402.29 465.971 1402.39 465.938C1402.49 465.904 1402.6 465.895 1402.7 465.91H1403.5L1404.36 465.71C1404.56 465.66 1404.74 465.56 1404.89 465.42C1405.03 465.28 1405.14 465.104 1405.2 464.91C1405.77 462.534 1406.01 460.092 1405.92 457.65C1405.92 455.47 1405.92 452.98 1405.92 450.16V431C1405.92 430.6 1405.92 430 1405.92 429.17C1405.92 428.34 1405.86 427.73 1405.86 427.31V427.23C1405.9 426.534 1405.75 425.84 1405.41 425.23C1404.97 424.686 1404.35 424.329 1403.66 424.23C1403.48 424.23 1403.16 424.16 1402.66 424.12C1402.53 424.083 1402.4 424.063 1402.27 424.06H1401.83C1401.3 424.06 1401.03 423.82 1401.03 423.35C1401.03 422.88 1401.45 422.49 1402.27 422.49L1404.2 422.55C1404.67 422.55 1405.39 422.55 1406.34 422.55L1408.63 422.61H1419.16C1420 422.61 1421.27 422.55 1422.96 422.44L1423.96 422.24H1424.02C1424.1 422.153 1424.21 422.085 1424.32 422.04C1424.45 421.981 1424.59 421.951 1424.73 421.95C1425.16 421.95 1425.37 422.27 1425.37 422.95C1425.37 422.95 1425.19 423.84 1424.84 425.75V425.69C1424.84 426.2 1424.84 427.21 1424.68 428.69C1424.69 428.998 1424.67 429.306 1424.62 429.61V429.75C1424.44 430.28 1424.17 430.55 1423.83 430.55C1423.31 430.55 1423.06 430.18 1423.06 429.44C1423.05 429.008 1423.01 428.577 1422.95 428.15L1422.78 427.63C1422.65 427.235 1422.42 426.881 1422.11 426.604C1421.8 426.326 1421.43 426.135 1421.02 426.05C1419.89 425.78 1418.74 425.64 1417.58 425.63C1415.4 425.56 1413.79 425.52 1412.74 425.52H1411.39V442.1H1416C1418.01 442.166 1420.02 442.042 1422 441.73C1422.3 441.67 1422.57 441.507 1422.77 441.27L1423.02 441.04C1423.35 440.6 1423.64 440.38 1423.9 440.38C1424.36 440.38 1424.59 440.68 1424.59 441.27C1424.59 441.38 1424.48 442.03 1424.26 443.21C1424.02 444.896 1423.9 446.597 1423.9 448.3V448.59C1423.9 449.37 1423.64 449.76 1423.13 449.76C1422.62 449.76 1422.39 449.46 1422.39 448.87C1422.41 448.262 1422.33 447.655 1422.17 447.07C1422.17 447 1422.08 446.85 1422 446.64C1421.75 446.207 1421.39 445.849 1420.96 445.602C1420.52 445.356 1420.03 445.231 1419.53 445.24C1418.72 445.24 1416 445.15 1411.41 445Z" fill="white"/>
<path d="M1469.3 458.34C1469.06 459.838 1468.52 461.273 1467.72 462.56C1466.92 463.846 1465.86 464.958 1464.62 465.83C1462.05 467.593 1458.98 468.477 1455.87 468.35C1453.2 468.398 1450.55 467.841 1448.12 466.72C1447.73 466.482 1447.41 466.135 1447.21 465.72C1447.16 465.215 1447.14 464.707 1447.15 464.2C1447.15 464.28 1447.21 462.85 1447.32 459.92C1447.32 459.76 1447.32 459.43 1447.32 458.92C1447.36 458.618 1447.38 458.314 1447.38 458.01C1447.45 457.12 1447.72 456.67 1448.18 456.67C1448.64 456.67 1448.97 457.01 1448.97 457.67C1448.97 460.83 1449.97 462.983 1451.97 464.13C1453.52 464.975 1455.26 465.416 1457.03 465.41C1459 465.435 1460.91 464.75 1462.42 463.48C1463.18 462.87 1463.79 462.092 1464.19 461.206C1464.6 460.321 1464.79 459.353 1464.76 458.38V458.04C1464.74 456.661 1464.45 455.3 1463.88 454.041C1463.32 452.782 1462.51 451.652 1461.49 450.72C1460.62 449.83 1458.75 448.1 1455.85 445.55C1453.9 443.929 1452.17 442.063 1450.7 440C1449.25 437.838 1448.49 435.292 1448.5 432.69C1448.43 431.141 1448.71 429.597 1449.32 428.174C1449.94 426.751 1450.87 425.487 1452.05 424.48C1454.45 422.595 1457.44 421.624 1460.49 421.74C1462.3 421.717 1464.1 421.929 1465.86 422.37C1466.49 422.532 1467.15 422.619 1467.8 422.63C1468.37 422.63 1468.66 422.89 1468.66 423.43C1468.66 423.54 1468.66 423.72 1468.66 423.97L1468.55 425.14C1468.55 426.19 1468.49 427.69 1468.49 429.63C1468.49 430.77 1468.23 431.34 1467.69 431.34C1467.15 431.34 1467.03 430.99 1466.92 430.29C1466.82 429.827 1466.75 429.36 1466.7 428.89C1466.46 427.813 1465.88 426.84 1465.05 426.11C1463.43 424.956 1461.46 424.401 1459.47 424.54C1457.74 424.475 1456.05 425.097 1454.78 426.27C1454.16 426.88 1453.68 427.614 1453.36 428.424C1453.05 429.234 1452.91 430.102 1452.95 430.97C1453.04 433.188 1454.02 435.277 1455.65 436.78C1456.88 438.131 1458.22 439.382 1459.65 440.52C1462.01 442.301 1464.2 444.311 1466.17 446.52C1468.38 449.123 1469.6 452.425 1469.61 455.84C1469.58 456.681 1469.48 457.518 1469.3 458.34V458.34Z" fill="white"/>
</g>
<g clip-path="url(#clip1)">
<path d="M0 1.93994V232.17C10.503 203.587 26.087 177.138 46 154.1C86.06 107.1 144.87 75.2299 207.37 66.6599C219.5 65.0132 231.728 64.188 243.97 64.1899C296.005 64.1601 347.019 78.6389 391.28 106C397.42 109.83 403.34 113.94 409.06 117.91L410.9 119.18L411.41 119.53L411.89 119.93C413.69 121.41 415.52 122.87 417.34 124.33C421.58 127.72 425.96 131.22 430.22 135.12L430.41 135.3L430.6 135.48C432.17 137.02 433.81 138.55 435.55 140.17C439.944 144.082 444.073 148.281 447.91 152.74C449.01 154 450.13 155.26 451.25 156.52C455.742 161.413 459.969 166.543 463.91 171.89C483.36 199.15 496.99 227.43 505.57 258.32C514.449 289.402 517.467 321.864 514.47 354.05C511.71 384.3 502.94 414.81 488.41 444.72C475.015 472.007 457.695 497.185 437 519.45C416.615 541.745 392.732 560.569 366.29 575.18C356.226 580.863 345.726 585.739 334.89 589.76H587.82V1.93994H0Z" fill="white"/>
<path d="M178.15 539.602L152.52 549.817C147.282 551.905 144.728 557.843 146.816 563.081L167.701 615.483C169.789 620.721 175.727 623.275 180.965 621.187L206.595 610.972C211.833 608.885 214.387 602.946 212.299 597.708L191.414 545.306C189.327 540.068 183.388 537.514 178.15 539.602Z" fill="white"/>
<path d="M149.41 568.34C139.604 571.067 130.019 574.537 120.74 578.72C114.25 581.831 108.12 585.644 102.46 590.09C96.4909 594.874 91.5691 600.834 88 607.6C84.5314 614.392 82.9366 621.986 83.38 629.6C83.8262 636.589 85.7883 643.396 89.13 649.55C89.4136 650.13 89.894 650.59 90.4854 650.848C91.0768 651.106 91.7407 651.145 92.3585 650.959C92.9763 650.772 93.5077 650.373 93.8579 649.831C94.208 649.289 94.3541 648.64 94.27 648C93.13 635.56 95.69 624.11 102.48 616.74C105.846 612.877 109.919 609.693 114.48 607.36C119.323 604.716 124.435 602.601 129.73 601.05C138.87 597.98 149.17 596.05 159.54 593.85L149.41 568.34Z" fill="white"/>
<path d="M480.27 267.35C472.421 239.29 459.671 212.84 442.61 189.22C437.98 182.78 432.87 177.4 428.08 171.89C423.37 166.19 417.67 161.5 412.43 156.36C407.02 151.36 401.15 147 395.5 142.36C389.5 138.2 383.5 134.01 377.32 130.14C327.677 99.5627 269.016 87.0223 211.21 94.6301C154.37 102.42 101.67 131.46 66.06 173.25C30.06 214.77 10.72 268.12 11.35 319.45C26.82 270.57 54.7 228.45 91.53 199.25C127.001 170.418 170.856 153.851 216.53 152.03C260.75 150.57 304.53 163.91 340.25 187.81C344.67 190.88 348.88 194.21 353.19 197.38C357.19 200.94 361.44 204.19 365.26 207.88C368.9 211.76 373.06 215.16 376.41 219.26C379.76 223.36 383.63 227.07 386.41 230.95C398.97 247.64 409.5 267.57 417.36 287.68C421.208 297.823 424.218 308.265 426.36 318.9C428.89 329.48 429.85 340.29 430.36 351.19C431.36 372.97 427.85 395.35 420.79 417.06C413.572 439.125 402.837 459.879 389 478.52C374.965 497.326 357.696 513.485 338 526.24C320.06 537.98 299.655 545.426 278.37 548C280.31 546.98 282.24 545.93 284.16 544.85C298.01 537.34 310.73 527.6 322.92 517.03C328.69 511.4 334.73 505.94 339.92 499.62C342.57 496.52 345.36 493.5 347.8 490.22L354.96 480.22C357.415 476.915 359.644 473.447 361.63 469.84L367.77 459C371.49 452.14 374.87 444.81 378.03 437.38C384.349 422.253 389.127 406.526 392.29 390.44C395.443 373.669 396.525 356.575 395.51 339.54C394.048 321.811 389.904 304.406 383.22 287.92L377.53 275.72C375.46 271.72 372.99 268.02 370.7 264.19C368.459 260.363 365.967 256.688 363.24 253.19C360.67 249.56 357.81 246.25 354.96 242.91C343.451 229.852 330.081 218.56 315.28 209.4C285.93 191.17 250.05 181.85 215.39 185.57C181.616 189.127 150.115 204.268 126.24 228.42C103.56 251.69 89.72 281.78 87.82 311.58C103.82 286.47 124.1 267.01 146.7 254.36C169.36 241.89 194.05 236.23 217.29 237.93C240.47 239.36 262.35 247.93 281.19 261.37C300.03 274.81 315.34 293.08 323.77 312.94C332.39 332.94 334.62 356.24 331.37 380.52C329.8 392.944 327.095 405.199 323.29 417.13C321.4 423.22 319.35 429.29 316.76 435.42L313.06 443.95C311.957 446.87 310.62 449.696 309.06 452.4C292.7 485 265.27 513.13 231.83 535.3C237.89 529.533 243.77 523.55 249.47 517.35C270.47 496.68 298.27 439.95 302.94 412.01C306.6 388.63 306.22 376.01 301 355.85C295.78 335.69 285.7 320.6 270 306.66C262.16 299.86 253.1 294.12 243.19 290.93C233.557 287.712 223.377 286.454 213.25 287.23C194.575 289.083 177.017 296.987 163.25 309.74C180.05 304.27 197.34 301.83 212.58 304.96C226.986 307.58 239.856 315.581 248.58 327.34C252.902 333.059 256.431 339.336 259.07 346C260.62 349.47 261.2 353 262.28 356.31C263.54 359.54 263.66 363.21 264.28 366.64C266.05 380.64 264.5 395.43 260.73 410.16C252.161 441.09 239.991 470.908 224.47 499C217.559 511.464 209.55 523.288 200.54 534.33C200.61 534.47 200.68 534.62 200.74 534.76L220.31 583.85C238.44 581.73 256.82 580.44 276.2 578.34C282.73 577.6 289.42 576.6 296.2 575.26C302.98 573.92 309.62 571.81 316.34 570.04C329.39 565.54 342.22 560.34 354.07 553.51C378.003 540.278 399.619 523.235 418.07 503.05C436.869 482.815 452.602 459.935 464.77 435.14C476.95 410.08 485.63 382.43 488.27 353.52C491 324.549 488.287 295.323 480.27 267.35Z" fill="white"/>
<path d="M632.942 7.13214H622.988V34.74H618.925V7.13214H608.992V3.77155H632.942V7.13214ZM642.811 3.77155L652.935 29.0398L663.059 3.77155H668.355V34.74H664.272V22.6802L664.655 9.66321L654.488 34.74H651.361L641.216 9.72702L641.62 22.6802V34.74H637.536V3.77155H642.811Z" fill="white"/>
</g>
<defs>
<clipPath id="clip0">
<rect width="808.57" height="287.35" fill="white" transform="translate(661 181)"/>
</clipPath>
<clipPath id="clip1">
<rect width="684.05" height="651" fill="white"/>
</clipPath>
</defs>
</svg>
